<?xml version="1.0" encoding="utf-8"?>
<!-- Generator: Adobe Illustrator 18.0.0, SVG Export Plug-In . SVG Version: 6.00 Build 0)  -->
<!DOCTYPE svg PUBLIC "-//W3C//DTD SVG 1.1//EN" "http://www.w3.org/Graphics/SVG/1.1/DTD/svg11.dtd">
<svg version="1.1" id="Слой_1" xmlns="http://www.w3.org/2000/svg" xmlns:xlink="http://www.w3.org/1999/xlink" x="0px" y="0px"
	 viewBox="0 0 1024 226.8" enable-background="new 0 0 1024 226.8" xml:space="preserve">
<path fill="#20B2AA"      d="
	M1024,154.1h-37l-24.5-1.2c-0.5-2.6-2.8-3.5-2.8-3.5c-0.8-5.9-5.6-0.2-5.6-0.2c-1.6-4.7-4-0.2-4-0.2c-5.6,0.8-6.4-3.6-6.4-3.6
	c4.4-6.8,6.4-34,6.4-34c16.4-41.5-4-43.6-4-43.6c-2-4-16.8-24.8-16.8-24.8V17.6c0-3.6,5.2-13.2,5.2-13.2c-3.2-0.4-9.2,4.8-9.2,4.8
	l-8.6,3.2c-12.4,1.6-14.3,17.2-14.3,17.2c-3.6,4.4-1.1,9.6-3.5,13.6c-2.4,4-1.6,1.1-4,7.5c-0.2,0.4-0.3,0.8-0.6,1.2
	c-3.8,6.4-18.2,15.9-18.2,15.9c-5.6-3.7-12.4,4.9-12.4,4.9c-14.8,14.8,5.6,57.9,5.6,57.9c2,8,2,16.8,2,16.8l-0.8,3.5l-15-0.2
	c-5.1-19.5-16.9-49.2-16.9-49.2c9.6-10.4-34.7-54.3-34.7-54.3c-8-8.4-24.4-0.8-24.4-0.8c-3.2-4-14.7,3.3-14.7,3.3v-3.3
	c-3.3,0.4-7.6,8.7-7.6,8.7v-6.3c-7.6,0.8-11.7,11.7-11.7,11.7l-4.3,5.5c-1.2-8-4.6,1.2-4.6,1.2c-1.2-5.2-3.9,4.4-3.9,4.4
	c-2.8-5.2-3.8,12.4-3.8,12.4c2.4,24.4,19.1,29.5,19.1,29.5c4.4,2,16.4,0.8,16.4,0.8c-0.4,7.6,10,20.3,10,20.3
	c4.4,11.5,0.4,11.2,0.4,11.2c-3.6-2.8-7.2,2.4-7.2,2.4c-1.1,0-1.5,0.5-1.5,1.2l-16.1-0.2l-31.4-0.6c0.1-2.2-0.4-4.4-2.1-5.9
	c0,0,4.7-13.5,2.1-17.3c0,0,4.8-0.7,0.8-18.6c0,0,3.8-2.4,1.6-20c0,0,2.7-8.4-3.3-16.8c0,0-3.6-12-12.8-17.2l-6.4-5.6
	c0,0-10.4-26.4-32.3-24.4c0,0-26,8.4-14.4,32.3l1.2,8.4c0,0-14,20.8-8,18c0,0-6.2,27.9-1.5,22.8c0,0,2.3,31.5,7.5,24.8l2,15.2
	c0,0,0,1.2,0.2,3l-78.4-1.6c-1.1-2.8-4.5-3.2-4.5-3.2c-2.8-3.4-8.4-1.8-8.4-1.8c-6.8,4-9.2,0-9.2,0c1.2-11.2,0-26.4,0-26.4l8.4,10
	c7.2,6.4,8.8,3.4,8.8,3.4c7.6,3.4,7.2-0.2,7.2-0.2c7.2,1.2,5.6-2.4,5.6-2.4c8,0.8,7.2-3.3,7.2-3.3c9.2,1.1,5.2-4.3,5.2-4.3
	c16,2.8,14-2,14-2c16-2.8,8.8-6.8,8.8-6.8c7.2,0,1.6-9.2,1.6-9.2c13.2,1.2-2.4-10.8-2.4-10.8c25.6,2.8-4.4-13.2-4.4-13.2
	c15.2,1.6,16.8,0,16.8,0c0.4-2-19.6-10.4-19.6-10.4c21.6-1.6,19.6-4.8,19.6-4.8c-15.2-13.6-62.3-12-62.3-12S554.3,31.2,547.4,30
	l-3.4,4c-2.1-3.6-14.6-4-14.6-4l-2.7,4c-7.4-4-7.8,0-7.8,0v2.4c-9.8-1.2-6.2,2.8-6.2,2.8c-13.6,0-12.6,4.8-12.6,4.8
	c-12,2.8-15.8,10.4-15.8,10.4c-15.2,15.2-8.4,25.6-8.4,25.6c-2.9,14,1.4,12.8,1.4,12.8c-4.4,13.6,3.6,15.9,3.6,15.9
	c-0.4,12.4,4,8,4,8c-1,9,6.8,22.9,9.5,27.3l-9.7-0.2l-41.7-1.3c-1-2.7-2-5-2-5c22.8-15.2,9.2-67.1,9.2-67.1c-5.2-10.8-6-22.4-6-22.4
	c1.6,0.8,5.2-7.2,5.2-7.2l15.1-1.6c-1.6-2.8-13.1-6-13.1-6l-8-11.6c-6.4-10-27.9-8.8-27.9-8.8c-8.4,2-6,4.8-6,4.8
	c-10.8,5.2-12.8,22.8-12.8,22.8c0.4,5.2,0,7.2,0,7.2c-8.8,0.4-10.8,6-10.8,6c-8.4,8.8-4.4,8.8-4.4,8.8c-10.9,14.1-6.8,18.4-6.8,18.4
	c-12.4,23.6-6,26-6,26c-2.9,6.9-4.1,24.2-4.6,33.3l-47.9-1.5c1.7-22.6,2.2-42.2,2.2-42.2c2.4-36.7-8-37.2-8-37.2
	c-6.8-2.4-9.6-8-9.6-8c-3.2-8.8-11.1-18.1-11.1-18.1c0.1-4.6,7.1-10.3,7.1-10.3l14.8-2.7l-16-4.8c0.8-2,16.4-5.6,16.4-5.6
	c-3.6-4-16-2.4-16-2.4c-2-2.8-7.2-4.4-7.2-4.4c-13.6-6.4-22.8,0-22.8,0C243.4,9.2,247.4,33,247.4,33c2,6.6-11.6,9-11.6,9
	c-14.8,9.6-13.6,20-13.6,20c-8.2,11.3-15.7,45.5-20.7,72.9l-6.4-0.2l-16.4-0.6c-8.9-28.2-26.4-71.3-26.4-71.3
	c-24.8-39.5-35.5-26.3-35.5-26.3l-23.2-3.2L80.9,22.4c-11.6-16.4-31.2-9.6-31.2-9.6c-12.4,0.8-13.2,10.5-13.2,10.5
	c-6.4,0-10.4,4.5-10.4,4.5l13.6,3.7l12,16.4c-3.6,10,3.2,39.5,3.2,39.5c-10.4,14,21.2,39.5,21.2,39.5c-4.4-1.2-4.4,1.2-4.4,1.2
	c-2.8-4.4-5.2-0.4-5.2-0.4c-2.4-0.2-3.4,0.6-3.5,2l-60.3-2.2c-6.1,4.6,0,9.2,0,9.2l64.1,1.7c0.7,1.1,1.3,1.8,1.3,1.8
	c5.2,10.8,4.9,0.8,4.9,0.8c2.1,6.1,2.7,1.5,2.9-2.3l13.2,0.3l20.1,14.6c9.2,5.6,13.2,11.3,13.2,11.3c21.6,41.1,28.3,21.2,28.3,21.2
	c19.2,8.8,12.8-20.4,12.8-20.4c7.6,6,5.6-7.8,5.6-7.8c10.8,9,7.2-5.8,7.2-5.8c9.2,11.8,8.9,4.2,4.6-10.7l19.3,0.5
	c-3,17.4-4.8,30.6-4.8,30.6c-2.4,16,7.6-3.2,7.6-3.2c-3.2,23.2,6.4,0.8,6.4,0.8c-0.4,19.6,6.4,1.6,6.4,1.6c4.4-12.8,5.2-6.4,5.2-6.4
	c1.2,24,10,2,10,2c0,4.8,4.8,1.6,4.8,1.6l-4,12.8c-8,15.6,6.4,18,6.4,18c-1.2,6,6.8,4.8,6.8,4.8c3.2,11.6,16.4,5.3,16.4,5.3
	c2,5.3,9.6-2.1,9.6-2.1c5.6,6.8,9.2-4.8,9.2-4.8c11.2,2.8,5.2-17.2,5.2-17.2c0-10.8,2.9-8.7,2.9-8.7v11.5c1.1,14,11.1-7.6,11.1-7.6
	c-0.8,19.6,2.3,24.4,2.3,24.4c7.3-3.7,11.6-33,13.9-60.2l47.7,1.4L346,164.1c-10.4,12.4-2.1,15.2-2.1,15.2c-5.3,6,1,10,1,10
	c-4,10.4,6,9.6,6,9.6c-4,11.6,10.4,10,10.4,10c-2,14,12.8,6,12.8,6c-1.2,10.4,12,3.6,12,3.6c2.8,8.4,12.4,1.2,12.4,1.2
	c6.8,4.4,11.2-6.8,11.2-6.8c4.8,6.8,10.4-2,10.4-2c9.2,1.2,8.8-6,8.8-6c21.6-2.8-3.4-39.1-3.4-39.1c2.9-0.4,7.4-13.2,7.4-13.2
	c-0.4,8,4.4,3.6,4.4,3.6c3.6,6.4,4.4-6,4.4-6c3,2.2,3.7,1,3.4-1.4l51.5,1.5c3,12.3,9.8,28.2,9.8,28.2c-0.8,24.8,4.4,39.1,4.4,39.1
	c5.2,13.6,21.5,3.2,21.5,3.2c15.5,1.6,9.6-18,9.6-18c-7.9-17.1-5.8-42.8-4.8-51.4l21.9,0.6l3.3,2.4c0,14,5.2,1.2,5.2,1.2
	c0,17.2,4.8-2.4,4.8-2.4c1.1,4.3,1.9,2.1,2.5-0.8l79.6,2.3c0.8,4.2,2,7,4.1,2.4c0,0,9.2,24.8,8,39.9c0,0-6.8,36.3,14.4,29.1
	c0,0,18,7.6,18-12.4c0,0-2-15.6,0-24.4c0,0,3.6,16,9.2-4.8l5.6-24.8c0,0,1.9,0.8,3.1-3.4l26.6,0.8l26.8,0.4c0.7,2.4,1.7,1.4,2.4,0
	l1.5,0c2.6,9.3,3.4,3.6,3.7,0.1l0.9,0c2.7,7,5.7,2.5,6.9,0.1l0.8,0l1.9,8c-6.8,13.6,0.4,16.4,0.4,16.4c-2.4,10,6.8,9.6,6.8,9.6
	c0.4,17.6,7,8,7,8c3.4,20.8,12.6,5.6,12.6,5.6c14.8,14.8,9.6-39.1,9.6-39.1c1.6,4.8,3.6-7.2,3.6-7.2c2.2,8.4,3.5,3.3,4-0.5l22.3,0.3
	c2.2,5,3.2,7.4,3.2,7.4c0.7-1.2,0.6-3.9,0-7.3l11.1,0.2l-3.1,9.6c-2,11.2,4-2.8,4-2.8v14.8c4.4,15.2,14.4-17.2,14.4-17.2l-6.4,25.2
	c-0.4,25.2,16.6-14.8,16.6-14.8c-0.8,5.2,6.1,10,6.1,10c-2.4,15.6,1.2,36.7,1.2,36.7c8.4,24.8,21.2,7.6,21.2,7.6
	c22.4,10.8,12-22.4,12-22.4c-3.2-8.4-1.2-22.8-1.2-22.8c10.8,10,3.6-18.4,3.6-18.4c-0.6-2-0.5-3.4,0.2-4.5l13.7,0.3
	c1.4,10.4,3.8,3.1,4.6,0.1l0.2,0c-1.3,11.4,2.6,2.8,3.8,0.1l0.4,0c0.4,2.4,0.1,1.7,0.6,0l63.6,1.3V154.1z M545.7,136.6
	c-1.6,5.1,1.9,7.6,3.4,8.5l-11.3-0.2C539.5,136.9,545.7,136.6,545.7,136.6z M836.4,150.4c-1.2-2.8-4.4-4.2-4.4-4.2l0.4-9.6
	c2,3.6,9.2,10,9.2,10c2.8-2.4-0.8-19.3-0.8-19.3c4,9.5,7.3,17.3,9.8,23.3L836.4,150.4z"/>
</svg>
