<?xml version="1.0" encoding="utf-8"?>
<!-- Generator: Adobe Illustrator 18.0.0, SVG Export Plug-In . SVG Version: 6.00 Build 0)  -->
<!DOCTYPE svg PUBLIC "-//W3C//DTD SVG 1.1//EN" "http://www.w3.org/Graphics/SVG/1.1/DTD/svg11.dtd">
<svg version="1.1" id="Layer_1" xmlns="http://www.w3.org/2000/svg" xmlns:xlink="http://www.w3.org/1999/xlink" x="0px" y="0px"
	 viewBox="0 0 534.3 600" enable-background="new 0 0 534.3 600" xml:space="preserve">
<g transform="matrix(1.3333 0 0 1.3333 -265.67 0)">
	<path fill="#00BFFF"   d="M438.3,449.7c-0.6-0.6-4-1.6-5.4-1.6c-0.8,0-2.1-0.7-3.2-1.7
		c-2.4-2.1-6.4-4.8-7.1-4.8c-0.3,0-0.5,0.5-0.5,1.2c0,1-0.4,1.3-2.3,1.8c-2.1,0.5-2.4,0.5-3.4-0.4c-0.8-0.8-1-1.7-1-4.1l0-3.1
		l-2.7-2.5c-1.5-1.4-4-3.3-5.5-4.3c-1.5-1-3.9-2.8-5.3-4s-3.2-2.7-4-3.1c-1.1-0.6-1.7-1.4-2.1-2.9c-0.5-1.5-1.6-3.1-4-5.4
		c-9.9-9.7-10-9.7-18.1-15.2c-7.8-5.3-8.6-5.6-9.3-2.6c-0.8,3.1-2.3,3.5-5.3,1.4c-2.3-1.6-2.7-2.9-1.7-5.4c0.6-1.6,0.7-2,0.2-2.5
		c-1.5-1.4-10-7-15.7-10.4c-2.3-1.3-5.9-4-8-6c-4-3.7-10.4-8.8-11.1-8.8c-0.2,0-1.7-1-3.3-2.3c-6.3-4.8-8.2-6.2-13.5-9.8
		c-3.1-2.1-7.3-4.8-9.5-6c-2.2-1.2-6-3.4-8.4-4.8c-5.2-3-7.1-3.4-17.5-4.1c-16.2-1.1-30.2-4.5-41.8-10.3c-3.1-1.5-6.3-2.8-7.8-2.9
		c-1.3-0.2-2.8-0.5-3.3-0.8s-1.9-0.5-3.2-0.5c-4.4,0-9.1-0.6-9.1-1.2c0-1.8,5.1-1.9,13.6-0.3c3.8,0.7,4.7,0.4,4.2-1.6
		c-0.4-1.6-4-5.8-7.1-8.4c-3.2-2.6-12.2-7.1-13.6-6.7c-0.8,0.2-1.3-0.1-2.2-1.3c-1.3-1.8-1.1-2.1,1.5-3c2.1-0.7,3.6-0.2,10,3
		c7.3,3.6,10.9,6.9,16.4,14.5c2.2,3.1,4.1,5.1,5.4,5.8c2.9,1.7,14.8,5.4,20,6.3c5.2,0.9,26.2,2.4,27.4,2c0.4-0.2,0.9-0.6,1-1
		c0.3-0.8-3-7.5-4.9-10c-1.7-2.2-1.5-3.5,0.5-3.5c1.3,0,1.7,0.3,2.9,2.8c1.8,3.6,9.2,11,11.1,11c0.8,0,1.3,0.3,1.3,0.8
		c0,1.4,1.5,3.5,3.1,4.2c0.9,0.4,1.7,1.3,2,2.1c0.5,1.5,3.6,3.7,7.6,5.5c1.4,0.6,3.3,1.8,4.3,2.7c2.6,2.3,11,8.6,16.5,12.3
		c2.6,1.8,6.3,4.6,8.2,6.2c5.6,4.9,15.2,11.3,16.9,11.3c1.3,0,1.5-1.8,0.5-4.1c-0.7-1.5-3.4-4.6-8.9-9.9
		c-15.2-14.9-21.8-21.9-25.5-27.3c-1.1-1.6-4.7-5.8-8-9.4c-3.3-3.6-6.8-7.4-7.8-8.4c-1.1-1.2-3.1-2.5-5.6-3.6
		c-4.8-2.1-5.1-2.3-4.3-3.7c0.6-0.9,0.3-1.4-3-4.9c-3.5-3.8-3.6-4-3.3-5.9c0.2-1.1,0.4-2.1,0.5-2.2c0.1-0.1,1-0.2,2.1-0.2
		c1.9-0.1,2.2,0.1,7.2,5.4c6.3,6.7,8.6,8.4,10.3,8.1c0.9-0.2,1.2,0,1.2,0.6c0,1.4,2.7,5.1,6,8.2c2.5,2.4,3.2,2.8,3.8,2.3
		c0.4-0.3,0.7-0.9,0.7-1.3s0.2-0.7,0.5-0.7s0.5,0.9,0.5,1.9c0,2.5,1.8,6.1,4.9,9.8c1.4,1.6,3.1,3.8,3.7,4.8
		c1.4,2.1,13.5,13.9,15.5,15.3c0.8,0.5,1.9,1.8,2.6,2.8c0.6,1,2.4,2.9,4,4.3l2.9,2.4l0.7-1.1c0.4-0.6,1-1.1,1.4-1.1
		c0.6,0,1.8,2.1,1.8,3.2c0,0.3,0.7,1.7,1.5,3c0.8,1.3,2.1,4.2,2.8,6.5c2.7,8.3,4.6,10.7,13.9,16.7c9.9,6.5,22,15.9,24.6,19.2
		c1.4,1.7,7.7,8.5,10.2,10.9c0.7,0.7,2.1,1.8,3.2,2.5c1.9,1.2,2,1.3,2.6,0.4c0.7-0.9,0.7-0.9,1,0c0.7,1.9,4.8,6.8,7,8.2
		c1.2,0.8,3.5,2.1,5.1,2.8c1.6,0.7,3.4,1.8,4.1,2.4c1.6,1.5,8.2,4.3,10,4.3c0.9,0,1.6,0.4,1.9,0.9c0.5,0.9,3.7,2.2,13.8,5.7
		c8.9,3.1,10.4,3.5,13.8,3.9c1.8,0.2-4.6,0.4-14.5,0.4C446.7,450,438.5,449.8,438.3,449.7L438.3,449.7z M502.2,448.1
		c-2.6-3.3-3.5-4.9-3.9-6.3c-0.2-0.8-1.3-2.4-2.5-3.7s-2.5-3-2.9-3.8c-1.1-2.1-2.8-3.5-4.3-3.5c-1.2,0-1.3-0.2-1.6-2.1
		c-0.3-2.1-1.2-3.4-5-7.2c-1.7-1.6-5.9-8.1-5.9-9c0-0.2-1.5-2.4-3.2-4.9c-1.8-2.5-3.2-4.8-3.2-5.1c0-1.1-3.6-6.8-5-7.9
		c-0.8-0.7-1.5-1.6-1.5-2.3c0-0.6-0.6-2.2-1.3-3.6c-0.7-1.4-1.9-3.5-2.5-4.9c-1-1.9-1.7-2.6-3.5-3.4c-2.3-1-2.3-1-1.2-1.8l1.1-0.8
		l-1.8-3.5c-1-1.9-2.6-4.3-3.5-5.2c-0.9-1-2-2.5-2.3-3.5c-0.8-2.3-2.4-4.4-3.5-4.8c-0.5-0.2-0.9-0.8-0.9-1.4
		c0-1.7-1.8-3.7-13.9-15.7c-11.9-11.8-18.5-19-21.3-23.2c-1.9-2.9-7.8-8-10.9-9.6c-1-0.5-2-1.4-2.2-2c-0.2-0.6-0.5-1.2-0.8-1.4
		c-2.6-1.7-7.7-6.6-9-8.6c-0.9-1.4-2.4-3.6-3.4-4.8c-2.3-2.7-3-4.1-3-5.5c0-0.6-0.3-1.7-0.8-2.6c-0.6-1.1-1-1.4-1.8-1.2
		c-1.3,0.4-1.9-1.2-0.8-2c1.1-0.8,1-1.7-0.2-5.1c-0.6-1.6-1.2-4.2-1.5-5.9c-1.6-10.1-5.6-19.1-12.2-27.9c-2.1-2.8-5.1-7.3-6.8-10.1
		c-3.1-5.2-5.8-8.2-7.6-8.2c-0.8,0-0.9-0.2-0.7-1.3c0.2-0.9,0-1.6-0.9-2.5c-0.7-0.7-2.3-2.5-3.7-4.1c-4.6-5.3-11-11.2-15.2-14.1
		c-4.2-2.8-7.5-4.6-8.7-4.6c-0.3,0-1.6-0.9-2.8-2l-2.2-1.9l0.6-2.6c0.3-1.4,0.6-3.2,0.6-4c0-1.6,1.3-2.5,2-1.4
		c0.2,0.4,0.4,1.7,0.5,2.9c0,3.9,3.1,7.2,6.6,7.1c0.8,0,1.6,0.3,1.9,0.8c0.5,1,6.4,5.1,7.3,5.1c0.4,0,0.8,0.4,0.9,0.9
		s2.1,2.5,4.4,4.5c4.1,3.6,5.2,4.8,11.6,12.2c2.4,2.8,3.6,3.9,4.5,3.9c0.7,0,1.3-0.2,1.5-0.5c0.8-1.2,1.4,0,1.5,2.9
		c0.1,3.6,1.8,7.1,5.1,10.6l2.1,2.3l-0.3-2.8c-0.2-1.5-0.5-3.1-0.8-3.6c-0.2-0.5-1.1-4.1-1.9-8c-2-9.6-2.1-9.9-5-12.7
		c-1.4-1.4-2.5-2.7-2.5-3c0-0.9,1.9-2.4,2.7-2c2.8,1.1-4.7-17.7-10.9-27c-1.3-1.9-3.4-4.8-4.8-6.5c-2.1-2.5-2.8-3-4.2-3
		c-1.5,0-1.6-0.1-1.6-1.9c0-1.3-0.5-2.5-1.6-4c-0.9-1.2-3.3-4.7-5.4-7.8c-6.2-9.2-17.1-23.1-18.2-23.1c-0.8,0-2.3,6.3-2.7,10.9
		c-0.3,4.2-0.5,4.9-1.8,6.2c-1.3,1.4-1.7,1.6-4.4,1.6c-3.8,0-5.4-1.1-6.8-4.5c-0.8-2.1-1-3.9-1.1-12.2c-0.1-6.3-0.3-10.3-0.7-11.2
		c-0.8-2.1-1.9-7.3-2.3-11.5c-0.2-1.9-0.9-6.3-1.5-9.6c-1.9-9.9-1.5-16.9,1.3-20.4c0.9-1.1,1.6-2.7,1.8-4.1c0.4-3.1,0.9-3.9,3.6-6.7
		c2.5-2.6,3.2-2.7,6.7-1.8c1.8,0.5,2.6,0.4,4.6-0.2c3.7-1.2,7.8-0.9,7.8,0.7c0,0.3-1.5,1.5-3.2,2.9c-4.8,3.6-5.6,6-2.6,7.6
		c1.5,0.8,3,3.8,4,8.3c1,4.2,1,7.5,0.1,11.4c-1.3,5.5-2.3,13.5-2.3,18.2l0,4.6l5.6,6.4c3.1,3.5,7.7,9.1,10.2,12.5
		c2.6,3.3,5,6.4,5.5,6.8c0.8,0.7,0.8,0.6,0.5-1.5c-0.2-1.2-0.6-4.8-0.8-7.8c-0.3-3.1-0.9-7-1.5-8.8c-0.7-2.3-1.1-5.9-1.5-13.7
		c-1.5-29-1.5-28.6-7.5-49c-1.1-3.6-2.2-8.3-2.4-10.6c-0.3-2.2-0.6-4.4-0.6-4.8c-0.1-0.4,0.3-0.6,1-0.6c0.9,0.1,1.4-0.4,2.4-2.4
		c3-5.9,6-16.8,5.2-18.8c-0.6-1.5,0.7-3.7,2.1-3.7c0.5,0,1.1-0.4,1.3-0.8c0.3-0.7-0.5-15.8-1.2-24.3L328.4,0h1.3
		c1.2,0,1.3,0.2,1.3,1.7c0,0.9,0.2,2.3,0.5,3c0.3,0.7,0.6,3.8,0.7,6.9c0.1,3.1,0.5,7.8,0.7,10.5c0.3,3.1,0.3,6,0,8
		c-0.6,4.1-4,14.6-7,22.2c-1.3,3.3-2.4,6.7-2.4,7.4s0.9,4.1,2,7.4c5.2,16.1,7.1,27.3,7.8,45.3c0.5,14,1.3,18.1,3.7,18.1
		c2.4,0,10-11.4,11.8-17.5c0.9-3.2,1.2-7.3,0.6-8.9c-0.3-0.9-0.2-1.1,0.4-1.1c0.9,0,0.9,0.1,3-10.7c0.9-4.6,2-8.7,2.4-9.1
		c1.2-1.2,4.9,0.6,4.9,2.5c0,0.2-0.4,0.3-1,0.3c-1.2,0-1.8,0.9-1.6,2.3c0.1,0.6-0.2,1.9-0.6,2.9c-1,2.4-2.7,10.3-3.8,17.6
		c-0.7,5-1.2,6.7-3,10.4c-2.9,5.9-5.4,9.7-9,13.6c-1.7,1.8-3.2,3.8-3.5,4.5c-0.6,1.5,0.5,8.6,1.7,11.4c0.4,1,1.1,3.8,1.6,6.2
		c0.8,4.9,1.1,5.5,3.8,8.9c2,2.5,3,4,6.1,8.5c2.6,3.8,7,11.9,9.6,17.6c1.3,2.8,2.6,5.1,2.9,5s0.7-1.7,0.8-3.6
		c0.3-4,2.3-10.2,3.2-10.2c0.6,0,3.5-3.2,6.3-7c0.7-1,4.1-4.8,7.6-8.6c6.2-6.7,8.4-9.9,9-12.5c0.2-0.8,1-1.8,2.1-2.4
		c2.5-1.5,5-4.8,8-10.4c5-9.5,8.9-16.2,10.5-18.3c0.9-1.2,3.3-4.7,5.4-7.8c3.7-5.6,11.1-14.6,12.8-15.4c1.1-0.5,2.1-0.2,2.1,0.7
		c0,0.4-1.9,2.9-4.1,5.6s-4.8,5.9-5.7,7.2c-5.5,8-11.6,17.8-15.2,24.5c-5.1,9.5-6.4,11.4-10,15.3c-1.6,1.7-3.5,4.2-4.2,5.7
		c-0.8,1.5-4.3,5.9-8,10.1c-3.7,4.1-7.1,8-7.5,8.8s-2.1,2.9-3.5,4.7c-3.7,4.6-4.7,7.1-4.6,11.3c0,1.9-0.2,4.7-0.5,6.2
		c-0.3,1.5-0.5,4.3-0.4,6.2c0.3,4,1.7,11.4,2.6,13.2c0.6,1.2,6.3,5.3,12.1,8.5c10,5.6,10,5.6,11.6,3.9c1.7-1.8,2.2-3.3,2.3-5.9
		c0.1-2.3,0.2-2.6,1.9-3.7l1.9-1.2l2.1,1c1.6,0.8,2,1.2,1.7,1.9c-0.2,0.5-0.8,3.3-1.2,6.3s-1.1,6.2-1.5,7.2
		c-0.3,0.9-0.5,2.5-0.3,3.4c0.2,1,0,2.2-0.3,2.7c-0.4,0.7-0.4,1.3,0.1,2.6c0.7,1.6,0.8,2,0.9,3.4c0,0.4,0.4,0.6,1.1,0.4
		c0.6-0.2,1.6,0.1,2.2,0.5c1.3,0.9,1.6,2.7,0.5,2.7c-1,0-1.5,1-0.8,1.6c0.8,0.8,0.7,2.2-0.3,2.8c-0.7,0.4-0.7,0.6-0.3,1.2
		c0.4,0.5,0.5,0.8,0,1.3c-0.4,0.4-0.4,1.2,0.1,3.2c0.4,1.4,0.7,4.2,0.8,6.1s0.1,4.6,0.1,5.9c0,1.9,0.3,2.7,1.4,3.6
		c1.2,1.1,1.3,1.4,0.8,2.5c-0.5,1.1-0.5,1.2,0.4,1.2c1.1,0,1.2,0.6,0.4,2.1c-0.4,0.8-0.4,1.1,0.1,1.4c0.5,0.3,0.5,0.6-0.1,1.3
		c-0.7,0.8-0.7,1.4-0.3,3.9c0.8,5.2,2.5,9.4,4.1,10.2c1,0.5,1.3,0.9,1.1,1.6c-0.2,0.5-0.4,1.3-0.6,1.8c-0.2,0.6,0.5,1.7,1.9,3.4
		c1.2,1.4,2.6,3.3,3.1,4.2c1.6,3.1,5.5,7.6,12.6,14.5c10.3,10,13.7,12.7,13.7,11c0-0.3,0.4-0.5,0.8-0.4c0.8,0.2,1.4,1.1,5.3,8.2
		c0.9,1.6,2.4,3.8,3.4,4.8s2.1,2.4,2.4,3.3c0.4,0.8,1.3,2.4,2.1,3.5c0.8,1.1,2.5,3.7,3.8,5.8s3.4,5.4,4.7,7.3s2.6,4.2,2.7,4.9
		s1.1,2.3,2,3.5c0.9,1.2,1.8,2.6,2,3.2c0.2,0.6,0.9,1.7,1.6,2.4c0.7,0.7,1.2,1.7,1.2,2.1c0,0.5,1,2.3,2.2,4.1s2.2,3.4,2.2,3.6
		c0,0.8,5.3,8.1,8.1,11.3c1.6,1.8,3.3,4.1,3.7,4.9c0.4,0.9,1.8,2.8,3.1,4.3s3.1,3.7,3.9,4.9s2.4,3.2,3.5,4.4s2.9,3.5,3.9,5.1
		c1,1.5,2.4,3,3.1,3.4c0.8,0.4,1.3,1,1.3,1.7c0,1.4,2.3,4.4,3.4,4.4c1.3,0,4.1,1.2,4.2,1.7c0,0.3,0,1.1,0,1.7
		c-0.1,0.8,0.3,1.5,1.1,2.1c0.6,0.5,1.2,1.4,1.2,2.1c0,0.7,0.7,2,1.4,2.8s1.3,1.8,1.3,2.1c0,0.3-4,0.5-9.4,0.5h-9.4L502.2,448.1
		L502.2,448.1z M398,289.2c0-0.6,0.1-1.4,0.3-1.9c0.2-0.5-0.1-0.9-1-1.3c-1.4-0.5-1.7-1.4-0.6-1.8c0.6-0.2,0.7-1.1,0.7-3.4
		c0-4.2-0.9-12-1.5-12.5c-0.2-0.2-0.3-1.1-0.2-1.9c0.4-2-0.7-10.5-1.9-14.5c-1.1-3.7-2.4-5.3-5.3-6c-1.1-0.3-3.2-1.3-4.7-2.2
		s-3.6-1.9-4.6-2.2c-1.8-0.6-3.3-1.8-2.8-2.3c0.1-0.1,1.2,0.2,2.4,0.8c1.2,0.5,2.5,1,2.9,1c0.4,0,1.7,0.7,2.9,1.5
		c2.7,1.8,5.5,2.4,6.5,1.4c1.1-1.1,0.4-5-1.3-6.8c-1.1-1.2-17.6-11.5-18.4-11.5c-0.4,0,0.4,4.5,1.4,8.2c0.5,1.9,1.5,5.6,2.2,8.2
		c0.7,2.6,1.8,6.1,2.5,7.8c1.4,3.3,1.8,4.7,3.9,12.5c0.7,2.7,1.6,5.8,2,6.8c0.4,1,0.9,3,1.2,4.5c0.9,4.4,3.1,10,4.1,10.6
		c0.6,0.3,0.8,0.8,0.7,1.4c-0.2,0.6,0.2,1.3,1,2.1c0.7,0.7,1.7,1.9,2.3,2.8s1.5,1.7,2.1,1.8C396.4,292.3,398,290.8,398,289.2
		L398,289.2z M574.3,445.9c-5.1-5.6-8-7.9-16-12.7c-2.2-1.3-5.6-3.4-7.5-4.5s-3.8-2.2-4-2.2s-1.7-0.8-3.2-1.8
		c-1.5-1-6.6-3.7-11.2-6.1c-9.5-4.8-12.6-6.6-13.5-8c-0.4-0.5-1.3-1.2-2.1-1.5s-1.8-1.2-2.2-2.1c-0.5-0.9-1.8-1.9-3.5-2.7
		c-1.5-0.6-3.9-2.3-5.5-3.8s-3-2.6-3.3-2.6c-1.1,0-1.7-1.4-1.1-2.5c0.5-0.8,0.9-1,2-0.8c1,0.2,1.6,0,2.3-0.7
		c0.5-0.5,1.5-1.1,2.4-1.3c1.2-0.3,1.7-0.1,2.6,0.9c1.6,1.9,8.1,7.2,9.2,7.6c0.5,0.2,1.6,1.1,2.3,2c1.6,2.1,6,5,8.6,5.7
		c1.1,0.3,2.4,1,2.9,1.6s1.2,1,1.5,1s1.7,0.6,3,1.4c1.3,0.8,4.4,2.6,6.9,4s5.4,3,6.5,3.7c8.3,4.7,11.6,6.5,12.3,6.5
		c1.4,0,1.5-1.4,0.2-4c-1.5-2.9-1.6-4-0.3-4c0.5,0,1.3-0.6,1.8-1.3c0.6-0.9,1.2-1.2,2.2-1.1c1.6,0.2,2.9,2.5,4.8,8.9
		c1.8,5.8,3.4,8.7,7,12.5c5,5.4,8,9.1,8.7,10.6l0.6,1.4h-10.4L574.3,445.9L574.3,445.9z M598,449.9c0.1-0.1,0.6-0.4,1.1-0.8
		c0.7-0.6,0.9-0.6,0.9,0.1c0,0.5-0.4,0.8-1.1,0.8C598.3,450,597.9,449.9,598,449.9z"/>
</g>
</svg>
