<?xml version="1.0" encoding="utf-8"?>
<!-- Generator: Adobe Illustrator 18.0.0, SVG Export Plug-In . SVG Version: 6.00 Build 0)  -->
<!DOCTYPE svg PUBLIC "-//W3C//DTD SVG 1.1//EN" "http://www.w3.org/Graphics/SVG/1.1/DTD/svg11.dtd">
<svg version="1.1" id="Слой_1" xmlns="http://www.w3.org/2000/svg" xmlns:xlink="http://www.w3.org/1999/xlink" x="0px" y="0px"
	 viewBox="122.5 0 901.5 768" enable-background="new 122.5 0 901.5 768" xml:space="preserve">
<path fill="none" stroke="#000000" stroke-width="2" stroke-linecap="round" stroke-linejoin="round" stroke-miterlimit="10" d="
	M892,566.3c-71.9-34.4-117.6-83.1-117.6-83.1c44.2,32.9,44.9,26.2,44.9,26.2c4.5-15.7-72.9-62.7-72.9-62.7
	c-34.7-21.4-54.4-41.4-54.4-41.4c-26.2-34.4-132.5-112.3-132.5-112.3c-6.7-15.7-101.8-101.1-101.8-101.1
	c-10.5-20.2-49.4-71.1-49.4-71.1l9,4.5L403.7,102l10.5,4.5C411.2,99.8,394,81,394,81l8.2,0c0,0-45.7-41.2-69.6-51.7
	c0,0,13.5-0.8-13.5-10.5c0,0-42.7-24.7-75.6-10.5c0,0-1.5-6-24.7,6.7c0,0-59.2,29.3-53.2,51.8c0,0-39.7,32.8-37.4,45.8h11.4
	c0,0,33.6,18,41.8,20.3c0,0,8.2,35.4,15,42.2c0,0,12.4,19.2,9.4,49.2c0,0-14.4,88.1,9.4,136V351c0,0,29.6,87.2,52.8,106.7l-0.2-9.7
	c0,0,28.1,37.6,54.9,47.9l-4.4-8.2l15.8,8.2c0,0,55.4,38.2,69.7,38.9l-3.7-7.5c0,0,37.4,21,55.4,19.5L374.5,585
	c0,0-22.5,10.5-40.4,7.5c0,0-25.5-14.2-38.9-4.5l-83.9-34.4c0,0-27-4.9-45.7,39.5c0,0-10.5,33.9,27,39.1l78.6,25.5
	c0,0,0,34.4,29.2,30.7c0,0,17.2,9,24.7-3l2.2-5.2l86.9,40.4c0,0,5.2,32.9,41.2,21.7l50.9,24.7c0,0,57.7,4.4,60.7-56.9l-44-23.2
	c0,0-3.9-12.7-17.4-20.2c0,0-31.4-3-19.5-29.2c0,0,6.7,3,12-13.5c0,0,49.4-64.4,56.9-67.4c0,0,17.2-5.2,22.5,3c0,0,3.7-1.5-5.2-8.2
	c0,0,51.7,12,62.9,4.5c0,0-14.2-3.7-21.7-11.2c0,0,18,7.5,26.2,2.2c0,0-27-5.2-31.4-20.2c0,0,40.4,15.7,110.1,18l97.3,14
	c15.7,14,109.3,54.2,109.3,54.2c61.4,35.2,68.9,36.4,68.9,36.4c0-6.3-42.7-34.1-42.7-34.1c16.5,9,55.4,24.7,55.4,24.7
	C1054.4,648.6,892,566.3,892,566.3z M302.8,677.8v-6l18.6,6C311.6,689.8,302.8,677.8,302.8,677.8z M342,609.5
	c25.5-0.2,35.2,14.8,35.2,14.8L342,609.5z M424.7,727.2l24,12C431.4,742.2,424.7,727.2,424.7,727.2z M473.5,628.4
	c-16.5,12.7-36.8,18-36.8,18l-19.5-7.5c-0.7-3.7-8.2-7.5-8.2-7.5c-12-1.5-24-27.7-24-27.7c6-1.5,9-8.3,9-8.3
	c9.7-9.7,81.7-36.8,81.7-36.8l3.3,0.9c-0.1,0-0.3,0.9-0.4,0.9c1.2,0,3.2,0,3.2,0l-2.7-0.9c3.3,0.6,10.8,7.1,10.8,7.1l-0.7-7.6
	c6.7,7.5,14.2,5.9,14.2,5.9c-5.2,0-1.5-6.1-1.5-6.1c7.5,0.7,25.5,0,25.5,0C524.3,569.3,473.5,628.4,473.5,628.4z"/>
</svg>
