<?xml version="1.0" encoding="utf-8"?>
<!-- Generator: Adobe Illustrator 18.0.0, SVG Export Plug-In . SVG Version: 6.00 Build 0)  -->
<!DOCTYPE svg PUBLIC "-//W3C//DTD SVG 1.1//EN" "http://www.w3.org/Graphics/SVG/1.1/DTD/svg11.dtd">
<svg version="1.1" id="Слой_1" xmlns="http://www.w3.org/2000/svg" xmlns:xlink="http://www.w3.org/1999/xlink" x="0px" y="0px"
	 viewBox="0 89.3 1024 678.8" enable-background="new 0 89.3 1024 678.8" xml:space="preserve">
<path fill="none" stroke="#000000" stroke-width="2" stroke-linecap="round" stroke-linejoin="round" stroke-miterlimit="10" d="
	M966.2,200.6c0,0-17.9-8.4-21.1-14.2c0,0-7.2-29.1-39.9-45.3v5.4c0,0-9-25.5-59.5-42.3l7.3,6.5c0,0-41.4-20.1-85.4-13l9.1,5.8
	c0,0-4.8-2.3-15.2,2.3l6.1,2.3c0,0-20.1,3.2-36.9,18.8c0,0-32.4,28-40.8,29.6l8.4-1.5c0,0-43.4,29.6-47.9,46.4
	c0,0-118.5,71.2-146.4,109.4c0,0-56.3,28.5-56.3,41.4c0,0-50.5,25.9-51.8,40.1c0,0-35,22.7-38.2,34.3c0,0-44.7,15.5-44,20.1
	c0,0-295.9,40.8-311.5,68c0,0,43.4,0,69.9-6.5c0,0-72.5,23.3-69.9,30.4c0,0,47.3-1.9,92.6-16.8c0,0,72.8-6.2,114-14.2
	c-17.8,4.7-40.8,11.6-42.8,15.2l7.8,2.2h-13.2c0,0-36.6,14,46.9,7.5c0,0,79,3.7,127.6,3.1c0,0,25.3,5.8,34.3,3.2
	c0,0-20.7,18.1-22,27.2c0,0-29.8,13.2-33.7,27.5c0,0-42.7,24.3-35,35.3c0,0,12.3-2.6,91.3-46.6l57.6-27.2c0,0,13.6,3.2,16.8,3.2
	l-12.3,3.2l20.1,4.5c0,0,16.1,7.8,36.2,7.8l-18.1,2.6c0,0,19.7,4.2,25.3,2.8l-11.7,3.7c0,0,16,4.8,24.3,3.2l-10,3.9
	c0,0,36.9,7.8,57,1.3c0,0,22.7,9.1,40.8-1.9c0,0,66.1,35,70.6,42.1c0,0-2.1,0.6-5.4,1.5l-16.8-6.7l-30.3-5.8
	c0,0-18.1-16.2-25.3-14.9c0,0-27.8-5.2-24,16.8c0,0,2.6,24,13.6,24c0,0,5.9,4.4,6.8,8.3c0,0,5.3,28.6,23.5,13c0,0,6.7,1.2,16.4,4
	c1.6,8.5,7.4,16.8,23.9,17.4c0,0-11.3-5.7-15.3-14.6c7.8,2.7,16.5,6.4,24.8,11.3c-4.9,2.2-11.3,6.3-8.8,11.8c0,0-20.7,14.2-31.1,0
	c0,0,12.3,23,38.2,6.3c0,0,3.9-3.3,7.8-7.7c1.5,5,5.9,10.2,17.8,6.2c-1.2,5.2-3.8,11.4-9.9,11.4c0,0,10.1,6.5,15.8-10.2
	c3.4,1,8.2,2.5,13.7,4.2c-0.2,1.7-0.4,7.6,3.9,9.2c0,0,14.9,28.5,38.2,11c0,0-21.4,3.9-29.1-10.4c0,0,1.4-1.9,1.9-4.8
	c14.8,5.2,30.7,11.7,39.1,17.7c-1.2,5.7-4.9,12.1-15.1,11.7c0,0,11.4,4.6,21.2-4.5c3,4,8.8,8.8,17.6,3.8c0,0,27.9,7.1,35,13.6
	c0,0,22.7,17.5,30.4,14.2c0,0,20.1-31.1,3.2-53.7c0,0-6.5-10.2-49.9-18c0,0,1.6-4.6-10.4-10.2h-7l-5.9-3.5c1.8-2.2,2.1-6.2-3.9-12.7
	c0,0-10.4-4.2-18.1-7.4c0,0-8.4-17.3-25.3-14.7c0,0-14.7-3.2-28.9-12.7l-49.4-52.8c5.9-2.3,11.9-5.1,16.1-8.2c0,0,3.9,2.4-6,8.4
	c0,0,13.8,4.4,56.5-29.3l-3.4,7c6.7,0.7,26-18,26-18l-5.8,9.1c3.3-0.8,7-2.4,10.9-4.5c19.5-11,42.9-36.3,42.9-36.3l-6.5,11.7
	c12.3-7.8,38.2-45.3,38.2-45.3l-11,21.4c17.5-5.8,39.5-59.6,39.5-59.6l-1.3,11c28.5-29.1,31.7-104.3,31.7-104.3s0,0,1.9-1.3
	c1.9-1.3,16.2-38.2,16.2-38.2l-2.6,14.2c7.8-8.4,21.4-51.2,21.4-51.2c-0.6,5.8-2.6,18.1-2.6,18.1c3.5-4.5,13-27.9,17.3-38.6
	c0.1,6.5,2.8,16.6,2.8,16.6c-1.3-4.5,7.8-32.4,7.8-32.4c-1.3,4.5,4.5,11.7,4.5,11.7c-1.9-2.6,3.2-16.8,3.2-16.8l1.9,5.8
	c-1.9-5.8,7.1-8.4,7.1-8.4c16.2,4.5,64.4-9.3,64.4-9.3S1019.3,207.1,966.2,200.6z M657,607.2l-27.3-17.3c0,0,3.3-0.8,8-2.3
	L657,607.2z"/>
</svg>
