<?xml version="1.0" encoding="utf-8"?>
<!-- Generator: Adobe Illustrator 18.0.0, SVG Export Plug-In . SVG Version: 6.00 Build 0)  -->
<!DOCTYPE svg PUBLIC "-//W3C//DTD SVG 1.1//EN" "http://www.w3.org/Graphics/SVG/1.1/DTD/svg11.dtd">
<svg version="1.1" id="Слой_2" xmlns="http://www.w3.org/2000/svg" xmlns:xlink="http://www.w3.org/1999/xlink" x="0px" y="0px"
	 viewBox="0 182 1590 922" enable-background="new 0 182 1590 922" xml:space="preserve">
<path fill="none" stroke="#000000" stroke-width="2" stroke-miterlimit="10" d="M1578.6,197.6c-74.4-15.2-290.7,46.3-331.1,49.9
	c-49.2-9.8-227.2-84.6-283.4,133.3c3.9-11.3,14.3-18.6,14.3-18.6s-12,22.2-15.2,36.3c1.8-6.3,13.6-12,13.6-12s-23.8,33.1-24.3,45.4
	c5.7-9.1,21.1-16.6,21.1-16.6s-34.7,74.6-81.6,74.1c-27-0.2-56.5-22.2-90.7-34.7c-95-34.5-657.6-145.1-789.1-122.4
	c1.6,2.9,33.3,72.6,99.8,87.8c6.1,24.3,63.5,39.2,75.5,42.4c-6.1,10.7,59,40.8,86.2,43.8c-4.5,10.7,61.9,54.4,101.4,48.3
	c-13.6,12,48.3,49.9,96.8,46.9c-4.5,8.2,65.1,36.3,80,28.8c1.6,12,25.6,33.6,65.1,25.2c9.1,18.8,25.6,20.2,59,18.6
	c-2.9,16.6,9.1,33.3,40.8,30.2c-9.1,13.6-16.6,19.7,22.7,21.1C734.8,769,535.7,876.5,573.2,884c-26.1,17.5-290.2,163.3-284.1,190.5
	c21.1,19,54.4-10.7,54.4-10.7s-52.8,46.9,27.2,22.7s121.1-50.3,160.3-69.6c23.1-11.3,51.5-9.1,51.5-9.1s-12,28.8,80-12
	c-10.7,4.5,10.7,21.1,49.9-1.6c0,0,25.6,12,51.5-16.6c18.1,2.9,39.7,20,75.5-43.8c0,0,5.2,34,42.2,13.8c0,0,1.6,21.8,39.5,0.5
	c2.5,2.5,11.8,2.3,7.5,9.8c8.4-1.8,11.6-12.7,15.6-15.9c2.5,2.5,1.4,0.2,2.5,9.8c13.2-9.8,12.5-25.8,15.9-29.9
	c7.7,6.6,47.6-72.8,47.6-72.8s80-63.5,111.8-152.6s93.6-361.2,141-402C1297.2,265.1,1527.6,203.7,1578.6,197.6z"/>
</svg>
