<?xml version="1.0" encoding="utf-8"?>
<!-- Generator: Adobe Illustrator 18.0.0, SVG Export Plug-In . SVG Version: 6.00 Build 0)  -->
<!DOCTYPE svg PUBLIC "-//W3C//DTD SVG 1.1//EN" "http://www.w3.org/Graphics/SVG/1.1/DTD/svg11.dtd">
<svg version="1.1" id="Слой_2" xmlns="http://www.w3.org/2000/svg" xmlns:xlink="http://www.w3.org/1999/xlink" x="0px" y="0px"
	 viewBox="0 235 1590 832" enable-background="new 0 235 1590 832" xml:space="preserve">
<path fill="none" stroke="#000000" stroke-width="2" stroke-miterlimit="10" d="M1574.9,893.4c-5.4-4.8-38.6-14.8-37-18
	s11.7-6.9-34.3-27.4c-11-4.9-206.2-70.4-267.5-88.2c-61.3-18-217.3-71.9-237.8-80.8c-20.5-8.9-134.2-58.2-191.3-88.8
	c-57.1-30.6-125.7-64-158.1-84.5c-32.2-20.7-128.9-72.5-163.9-92.5c-34.8-20.1-52.3-35.9-67.7-61.9c-15.4-26-39.1-56.6-59.2-72.5
	s-50.7-33.8-106.8-37s-92.5,20.1-109.4,30.6c-17,10.5-40.5,26.9-40.5,26.9s-12.7,1.6-31.1,2.6c-18.6,1.1-45.4,7.4-59.8,17.5
	c-15.2,10.7-11.1,12.7-3.2,12.7s12.7,0,28,0s42.3,6.4,49.7,8.5s28,15.4,45.4,29c17.5,13.8,36.4,51.3,37.5,55.5
	c1.1,4.2,3.7,14.8,2.7,20.7c-1.1,5.8-14.3,35.4-18.6,49.2c-4.2,13.8,0,30.1,0,30.1l6.9-11.7c0,0,0.5,25.8,2.1,37.5
	c1.6,11.7,7.4,24.4,7.9,22.3s0-12.7,0-12.7s2.1,9,4.2,18.6c2.1,9.5,11.7,25.8,11.1,23.3c-0.5-2.5,2.7-8.5,2.7-8.5
	s19.6,30.6,49.2,73.5s76.1,78.2,97.3,89.3c0,0,26.4,12.7,46,21.7c19.6,9,31.7,14.8,39.1,19.6c7.4,4.8,19.1,17,19.1,17l-5-15
	c0,0,2.4,0.1,6.6,3.8c4.2,3.7,17,15.9,14.8,13.8c-2.1-2.1-6.9-14.8-6.9-14.8s1.6-0.4,6.9,5.4c5.3,5.8,15.9,17.9,15.9,17.9
	s-11.1-20.7-2.1-14.3c9,6.4,18.5,21.2,18.5,18s-2.6-13.8-2.6-13.8s7.9,3.2,7.9,6.4s0.5,13.2,0.5,13.2s5.8-4.8,8-10.6
	c2.1-5.8-3.7-13.8-1.1-12.7c2.7,1.1,18.8,5.8,34.8,8c10.2,1.3,19.7,1.6,28.4,1.1c-0.5,7.8-0.9,15.5-0.9,18.4c0,5.3,1.3,8,1.3,8
	s-117.1,73.9-129.7,79c-12.7,5-16.4,3.4-22.8,7.2c-6.4,3.7-10.1,8-13.8,9.5c-3.7,1.6-27.4,7.4-31.7,6.4c-4.2-1.1-6.9-3.7-8.5-3.7
	s-10.1,3.8-10.1,3.8s-10.6,2-19.6,3.6c-9,1.6-6.9,0.5-22.8,4.8c-15.9,4.2-18.6,2.7-26.4,4.2c-8,1.6-17.5,6.9-17.5,6.9
	s-16.4,6.4-16.4,21.2c0,14.8,6.4,24.8,6.4,24.8s-1.1-15.4,3.2-23.3s8-7.4,8-7.4s1.6,8,7.4,5.8c5.8-2.1,14.8-7.4,17-9
	s14.3-4.2,14.3-4.2s-1.6,1.1-1.1,6.9c0.5,5.8,0.5,5.8,0.5,5.8s-3.2,4.8-2.1,11.7c1.1,6.9,9.5,17,9.5,17s-3.7-11.7-2.6-17
	s5.3-9,5.3-9s1.1,4.2,5.8,5.8c4.8,1.6,14.3,0.5,15.4-3.7c1.1-4.2,5.3-11.1,5.3-11.1s8-4.2,12.7-5.3c4.8-1.1,18,1.6,21.7-1.6
	c3.7-3.2,18,2.1,23.3-1.1c5.3-3.2,15.9-3.7,16.4-5.3s4.2,8,16.4,8s29-1.1,34.8-2.7c5.8-1.6,12.2,2.1,15.4,0.5c3.2-1.6,9,3.7,17,3.7
	c3.6,0,7.8-1.5,11.3-3.2c6.1,4.2,14,10.3,20.4,16.7c0.1,6.1,0,11.9,0,11.9s2-3.2,4-7.6c1.9,2.3,3.4,4.4,4.4,6.5
	c5.8,11.7-4.8,17.5,8.5,20.7c13.2,3.2,18-3.2,18-3.2s11.7,13.8,9.5,20.7c-2.1,6.9-9.5,19.6-9.5,19.6s19.6-9,19.6-21.7
	c0-12.7-10.6-28.5-10.6-28.5s-8-12.2-16.4-17.5c-3.7-2.3-11.1-8.3-18.4-14.6c0-0.1,0-0.1,0-0.3c-2.1-7.4-14.8-19.1-14.8-19.1
	s-0.5-0.1-1.3-0.4c5.3-7.6,18.9-26.4,37.8-45.2c24.4-24.4,64.5-62.9,77.6-73.9c13.2-11.1,24.8-19.1,26.9-21.7
	c1.7-2.1,5.6-11.5,11.4-25.2c16-3.7,42-10.2,60.6-10.2c19.1,0,66.1-2.1,66.1-2.1s27.4,9.5,43.9,15.9s57.1,26.4,88.8,40.1
	c31.7,13.8,23.3-6.9,10.6-21.7c-12.7-14.8-30.6-25.3-30.6-25.3s11.7-1.1,45.4,13.2c33.8,14.3,29.5-2.7,23.3-13.8
	c-6.4-11.1-33.3-25.8-33.3-25.8s30.1-1.1,49.2,0c19.1,1.1,63.5,3.7,87.7,6.9c24.4,3.2,106.3,27.4,162.8,43.9
	c56.6,16.4,165,56,180.7,65.1c15.9,9,29.5,18,42.8,18.5s1.6-7.4,7.4-4.8c5.8,2.6,44.4,21.2,58.7,28.5c14.3,7.4,28.5,4.2,34.8,0
	c6.4-4.2-9-11.1-9-11.1s15.4-0.5,18.5-3.2C1583.2,905.3,1588,904.9,1574.9,893.4z M512.9,924c-14.8,11.1-22.8,12.7-27.4,15.9
	c-4.6,3.2-18.2,3.6-23.3,6.4c-1.7,0.9-5.2,1.5-9.3,1.9c-0.8-0.1-1.3-0.3-1.3-0.3s22.8-19.1,43.9-32.2c21.2-13.2,73.4-41.2,73.4-41.2
	S527.7,912.8,512.9,924z"/>
</svg>
