<?xml version="1.0" encoding="utf-8"?>
<!-- Generator: Adobe Illustrator 18.0.0, SVG Export Plug-In . SVG Version: 6.00 Build 0)  -->
<!DOCTYPE svg PUBLIC "-//W3C//DTD SVG 1.1//EN" "http://www.w3.org/Graphics/SVG/1.1/DTD/svg11.dtd">
<svg version="1.1" id="Слой_1" xmlns="http://www.w3.org/2000/svg" xmlns:xlink="http://www.w3.org/1999/xlink" x="0px" y="0px"
	 viewBox="65 0 959 768" enable-background="new 65 0 959 768" xml:space="preserve">
<path fill="#FF1493"      d="
	M1009.6,635.8c2.4,0,13.4,8.6,13.4,8.6c-5.5-39.3-183.8-180.6-183.8-180.6C833.7,448.9,734.7,353,734.7,353
	c-18.3-19.4-45.6-64.4-45.6-64.4C609.1,140.2,409.5,69,409.5,69c-7.9-1.6-34.2-14.9-34.2-14.9h9.1c-14.9-14.4-47.1-23.6-47.1-23.6
	l7.1-1.2c-1.4-1.7-3-3.2-4.8-4.5c-10.9-7.5-28.2-7.9-28.2-7.9l6.3-3.9l-6.4-1.6l-28.9-7.1C234.4-9,177.1,22.4,177.1,22.4
	c-53.4,29.8-52.6,77.2-52.6,77.2l-5.6-6.3l2.8,9.5h-5.8l5.8,3.6c0,0-9.4,6.4-23.4,7.8c0,0-23.9,4.9-24.6,17.5l57.7,5.6l-5.6,9.8
	l9.1-7l-3.5,9.1l7-4.9c0,0,0.7,19.7,9.8,30.9l1.4-6.3c0,0,9.1,23.2,7,29.5l2.1-6.3l3.5,22.5l2.8-7.7c0,0,11.3,71,15.5,78.1l0.7-9.1
	c0,0,10.5,83,37.3,113.2l-0.7-11.4c0,0,19,41,28.8,47.3l-1.4-8.4c0,0,51.6,65.9,97.6,93.8c0,0,29.1,39,58.2,44.8
	c0,0-9.9-5.8-12.2-16.9c0,0,23.9,20.4,39,22.1c0,0-60.5,57.6-66.3,62.3c0,0-15.7,8.1-16.9,12.8c0,0-28.5-4.7-33.2,9
	c0,0-40.7,1.5-43.6,19.5l-7.1,3.2c-44.3,6.3-140.8,43.4-140.8,43.4s-16.3,34.3,44.2,47.1c0,0,16.9,2.3,19.2,6.4
	c0,0,85.6-26.2,94.9-22.7c0,0,8.7,9.9,14.5,10.5c0,0-9.3-10.5-7-14.5l87.9-8.7l5.9,0.5c0,0-0.6,26.2-23.9,32.1
	c0,0,29.1,4.7,33.8-32.6l3.5-2.9l45.4-0.6c0,0,11.6,9.3,21.5,1.2c0,0,5.2,9.9,5.8,15.7c0,0,1.2,5.2,4.7,5.8c0,0,7,18,29.1,7
	c0,0-18.6,1.7-19.2-5.8c0,0,8.7-8.1-2.3-16.9l-4.1-5.8l6.4,0.6c0,0,18,19.2,30.3,2.9c0,0-20.2,7-22.6-3.5l93-2.1
	c0,0,135.6,2.5,158.3,13.6h3c4.1-7.8,6.3-27,6.3-27c3.5-46-13.4-49-13.4-49s-117-11.1-194.4-11.1c0,0,0.6-15.7-4.1-20.4
	c0,0-7-7-17.5,0l-15.6,0.6l52.9-62.3l10.4-11.6c0,0,7.4,8.4,14.6,8.7c0,0-5.2-4.7-7.6-14c0,0,23.5,7.9,44.8,4.7
	c0,0-17.5-0.6-20.4-10.5c0,0,25-5.2,41.3,11.6c0,0-8.7-14-18.6-19.8c0,0,22.7,8.7,27.9,12.2l-15.1-15.7c0,0,25.6,9.9,34.9,2.9
	l-10.1-2.9c-10.1-2.9-11.8-6.7-11.8-6.7c20.4,8.6,27.5,3.9,27.5,3.9c-9.4-0.8-18.1-11-18.1-11c3.9,2.4,21.2,4.4,21.2,4.4l-16.5-9.9
	c9.4-2.4,24.4,9.9,24.4,9.9l-13.4-14.5c11,0.1,22,7.7,22,7.7c-2.4-4.7-13.4-17.3-13.4-17.3c3.1,0,16.5,3.1,16.5,3.1l-9.4-7.1
	c11-0.8,19.6,7.9,19.6,7.9l-7.9-14.1c7.9,14.1,19.6,13.4,19.6,13.4c-8.6-3.9-12.6-16.5-12.6-16.5c5.5,2.4,22,11.8,22,11.8
	l-11.8-12.6l12.6,4.7c52.6,64.4,69.1,63.8,69.1,63.8c4.7-6.9-20.4-38.6-20.4-38.6c0.1-0.6-0.5-2.1-1.6-4.2c-4.7-8.9-18.1-28-18.1-28
	l14.9,3.9c25.1,22,77,22.1,77,22.1C892.6,537.9,968,626.4,968,626.4c15.4,18,25.1,23.7,25.1,23.7c0-5.3-9.4-22.9-9.4-22.9l30.6,22.9
	C1014.4,644.8,1009.6,635.8,1009.6,635.8z M487.7,624.3c0,0-19.3,4.1-23.4,22.7c0,0-60.5,7-71,0c0,0-13.4-4.1-20.4-2.6
	c0,0,5.2-14.8,23.9-31.7L446,565c5.4,2.6,13.8,5.9,20.1,4.6c0,0-9.6-4-15.7-8.9l5.8-5.6c0,0,26.8,20.4,43.1,19.2
	c0,0-14-4.1-16.9-11.6c0,0,32.7,16.3,41.9,13.4c0,0-18-4.1-22.7-15.1c0,0,16.3,9.9,19.8,9.9l-11.1-11.1c0,0,21.5,6.4,29.1,5.8
	C539.4,565.5,505.3,610.4,487.7,624.3z"/>
</svg>
