<?xml version="1.0" encoding="utf-8"?>
<!-- Generator: Adobe Illustrator 18.0.0, SVG Export Plug-In . SVG Version: 6.00 Build 0)  -->
<!DOCTYPE svg PUBLIC "-//W3C//DTD SVG 1.1//EN" "http://www.w3.org/Graphics/SVG/1.1/DTD/svg11.dtd">
<svg version="1.1" id="Слой_2" xmlns="http://www.w3.org/2000/svg" xmlns:xlink="http://www.w3.org/1999/xlink" x="0px" y="0px"
	 viewBox="0 0 1590 1200" enable-background="new 0 0 1590 1200" xml:space="preserve">
<path fill="none" stroke="#000000" stroke-width="2" stroke-miterlimit="10" d="M1582.7,1166.4c-2.8-7.9-25.8-23.5-25.8-23.5
	s11.4,2.1,16.5,0c4.9-2.1-11.4-10.7-16.5-16.5c-5.1-5.8-97.9-77.9-202.8-142.8s-200.7-122.8-200.7-122.8s10.7,2.1,16.5,0
	s1.4-8.6,1.4-8.6l9.3-4.2c0,0,0,0-7.2-5.8c-7.2-5.8-9.3-24.9-16.5-32.1s-59.3-42.8-77.2-54.2s-28.6-36.5-49.3-57.9
	c-20.7-21.4-62.8-92.1-107.2-138.6C878.9,513,724.7,353,667.7,318.8c-57.2-34.2-119.3-77.2-144.2-102.8
	c-24.9-25.8-23.5-46.5-67.2-97.2S388.4,39.5,317,18.8s-124.2-7.2-147.9,0s-29.7,19.9-35.5,24.9c-5.8,5.1-16.5,9.3-33.5,13.5
	S54.9,69.9,34.7,82S7.8,105,8,106.5c1.1,6.9,127.2,61.4,127.2,61.4s0,5.8,37.9,51.4s57.9,82.1,66.5,102.8
	c8.6,20.7,10,51.4,19.3,101.4c9.3,50,57.9,149.3,85.8,200c27.9,50.7,101.4,105.8,177.9,180c18.3,17.7,34.8,32.5,51.1,45.2
	c24.8,24.1,54.5,57.7,59.1,84.1c8.3,46.5,8.3,60,6.8,72.8c-1.4,12.8,0.7,22.8,0.7,22.8s-97.2,82.1-105.8,87.2
	c-8.6,4.9-12.1,6.5-17.9,11.4c-5.8,4.9-9,11.4-18.6,15.2c-9.6,3.8-17.3,5.5-22.7,6.2c-5.2,0.7-11.4,3.4-11.4,3.4s-9.7-4.9-15.8-6.2
	c-5.9-1.1-12.7-4.1-18.9-2.8c-6.2,1.1-10.3,2.8-13.4,6.2c-3.1,3.4-3.5,6.6-3.5,6.6s-18.9-1.4-32.1-3.8c-13.2-2.4-21.4-4.5-24.2-3.8
	c-2.8,0.7-12-6.9-27.6-3.4c-15.8,3.5-25.5,28.9-25.5,28.9s12.1-17.2,24.5-17.9c12.4-0.7,18.6,4.5,18.6,4.5s-7.2,11.1-0.4,13.4
	c6.6,2.1,9.7,2.7,9.7,2.7s-3.1,7.3-2.7,10c0.4,2.7,0,4.5,0,4.5s4.8-12,9.6-13.8c4.8-2,17.2,2.7,17.2,2.7s-4.5,6.6,2.1,8
	c6.6,1.4,20.3,0,27.6-2.4s65.2-2.7,70.3-2.8c18.9-0.4,38-14.2,38-14.2s3.8,5.9,12.7,6.9s13.5-2.1,13.5-2.1s6.5,5.9,21.1,7.9
	c14.6,2,46.9,2,55.2,1.4c8.3-0.4,10.7,7.3,21.7,2.1c11-5.2,10.4-11.4,10-15.2c-0.4-3.8-2.4-6.5-2.4-6.5s3-4.1,22.4-2
	c19.3,2.1,37.6,22.1,37.6,22.1s-4.6-22.3-32.7-34.9c-20.4-9.3-37.6,0.7-37.6,0.7s-4.2-0.7-8.9,0.4c-4.5,1.1-34.9,6.2-47.2,5.5
	c-12.1-0.7-22-0.4-24.8-3.8s-3.5-5.5-3.5-5.5s102.1-96.2,120.7-107.6c18.6-11.4,31.7-24.1,39.7-41s14.2-23.4,6.6-40.3
	c-5.4-11.8-16.9-35.6-23.5-49.3c19.2,4.5,40.3,8.4,64.5,12.3c45.6,6.9,93.5,12.7,138.2,17.9c2,5.2,3.4,11.7,2.4,18
	c-2.4,14.2-22.4,124.2-34.8,137.2c-12.4,12.8-24.8,19.6-28,21c-3.4,1.4-10,6.2-21.4,6.2c-11.4,0-14.8-4.2-29-4.2
	c-9.2,0-15.5,5.5-18.7,10.6c-3.5-0.6-7.3-1.1-11.3-1.5c-21-2.4-34.2-8-49.6-8c-15.4,0-20.8,1.5-28,4.8c-12,5.2-14.2,20-14.2,20
	s11.1-17.3,28-15.2c15.4,1.8,18.4,2.1,19,2c-0.3,0.8-3.7,8.7-0.4,13.2c3.4,4.8,3.4,4.8,3.4,4.8s-2,4.2,1.4,9.6c3.4,5.2,8,10,8,10
	s-4.1-9.6-2.3-15.8c1.8-6.2,6.5-4.2,6.5-4.2s22.4,1.4,25.8,3.4c3.4,2,2,6.6,14.2,5.2c12.3-1.4,25.8-4.2,28.6-5.2s8.6,7.6,20,3.8
	c11.4-3.8,11.4-3.8,11.4-3.8s5.8,5.8,17.2,1c11.4-4.8,24.2-12,24.2-12s27.2,7.6,46.2,7.2c19-0.4,25.8-3.8,27.6-3.8s6.2,11.4,21,11.4
	s17.2-6.6,18-14.2c1-7.6-2.8-11.4-2.8-11.4s14.1,0,27.2,7.6c9,5.2,18.6,24.2,18.6,24.2s2.4-25.8-17.2-37.2c-19.6-11.4-39-9-39-9
	s-25.8,1.4-37.6,2c-12,0.4-31,2.4-32.8-2.4c-2-4.8,1-7.2,4.8-28c3.8-21,17.2-87.2,22-100.4c4.8-13.4,11-35.2,11.4-36.6
	c0.1-0.4-0.1-2.4-0.6-4.9c53.2,6.2,98.6,11.8,125.1,18.2c53.5,12.8,120.7,31.4,178.6,53.5c57.9,22.1,130.7,66.5,199.3,115.8
	s84.9,52.8,92.8,49.3c7.9-3.5-2.1-14.2,0.7-11.4s20.7-1.4,25.8-0.7C1567.1,1167.1,1585.6,1174.2,1582.7,1166.4z M795.6,1131.4
	c0,0-6.5-2.1-17.2-4.2c2.3-1.3,5.1-2.5,8.3-3.4c13.4-3.4,13.8,0.4,13.8,0.4L795.6,1131.4z"/>
</svg>
