<?xml version="1.0" encoding="utf-8"?>
<!-- Generator: Adobe Illustrator 18.0.0, SVG Export Plug-In . SVG Version: 6.00 Build 0)  -->
<!DOCTYPE svg PUBLIC "-//W3C//DTD SVG 1.1//EN" "http://www.w3.org/Graphics/SVG/1.1/DTD/svg11.dtd">
<svg version="1.1" id="Слой_2" xmlns="http://www.w3.org/2000/svg" xmlns:xlink="http://www.w3.org/1999/xlink" x="0px" y="0px"
	 viewBox="172 0 1245 1200" enable-background="new 172 0 1245 1200" xml:space="preserve">
<path fill="none" stroke="#000000" stroke-width="2" stroke-miterlimit="10" d="M1412.6,1069.2c-3.7-7.5-18.6-20.2-12.7-17.9
	c6,2.2,4.5-5.3,0-12c-4.5-6.7-95.4-85.8-95.4-85.8s6,0-6.7-22.4c-12.7-22.4-38-29.9-46.2-39.5c-8.2-9.7-84.3-72.3-84.3-72.3
	s29.9,15.7,56.6,32c26.8,16.4,91.8,66.4,91.8,66.4s-38.8-40.2-63.4-65.6s-136.5-142.4-159.7-167.9c-23.1-25.5-89.6-73.9-167.9-155.1
	c-78.1-81.5-204.6-185-240.7-202.2c-5.6-2.6-5.3-1.5-18.6-15.7c-13.5-14.2-31.3-65.6-38-92.5c-6.7-26.8-5.9-40.5-22.4-91
	C581.2,55.2,528.8,24.3,499,14.5c-29.9-9.7-68.6-8.9-108.1,0s-48.4,26-48.4,26s-3.7-0.7-16.4,0c-12.7,0.7-71.6,0-88.7,0
	s-45.5,2.9-56.6,8.2c-11.1,5.3,2.2,10.4,16.4,12c14.2,1.5,67.9,20.2,95.4,32.8c27.5,12.6,47.7,23.1,47.7,23.1s8.2,28.4,16.4,51.5
	c8.2,23.1,8.9,35.9,10.4,55.2c1.5,19.5-12.7,97-15.7,136.5c-2.9,39.5,5.3,103.6,14.9,141.7c9.7,38,35.1,108.1,61.2,154.4
	c26,46.2,103.6,111.8,145.5,140.9c41.7,29.1,82.8,51.5,123.1,66.4c8.6,3.2,20.3,5.6,33.7,7.2c17.6,21.4,54.7,66.7,55.9,69.7
	c1.5,3.7,0,7.5,0,7.5s-81.4,95.4-88,101.4c-6.7,6-12.7,6-17.9,8.2c-5.1,2.2-22.4,6.7-26.8,9.7s-5.3,1.6-8.2,4.5
	c-2.9,2.9-29.1,0.7-33.5,0c-4.4-0.7-21.7,14.9-21.7,14.9s-20.9-3.7-26-4.5c-5.1-0.9-17.1,0-21.7-2.9c-4.5-2.9-15.5-5-28.4-1.5
	c-19.5,5.3-23.1,32.8-23.1,32.8s9.7-16.4,23.1-17.9c10.4-1.2,14.2,1.5,14.2,1.5s-13.5,16.4,2.9,16.4s27.7-4.5,27.7-4.5
	s12.6,2.2,24.6,3.7c-1.3,5.3-1.5,9.8-1.5,9.8s1.6-4.7,5.1-9.4c8.8,1,16.4,1.5,17.3,0.3c2.2-2.9,0,9.7,11.1,8.9s38.8-4.5,49.9-6l0,0
	c-9.2,6.7-18.7,13.2-23.1,14.2c-9.7,2.2-23.1,6.7-28.4,3.7c-5.3-2.9-12-11.1-20.9-8.2c-8.9,2.9-6.7,14.2-6.7,14.2s3.7-4.5,8.2-3.7
	c4.5,0.7,6.7,7.5,6.7,7.5s-28.4,5.3-43.3,5.3c-14.9,0-38.8-2.9-45.5-6c-6.7-2.9-25.3-12.7-40.2,0c-14.9,12.7-5.3,24.6-5.3,24.6
	s3.7-14.2,16.4-14.9s11.1,4.5,11.1,4.5s-3.7,7.5,3.7,10.4c7.5,2.9,32,0,32,0s-2.2,7.5-0.7,12c1.5,4.5,7.5,14.2,7.5,14.2
	s-0.7-15.7,2.9-20.2c3.7-4.5,10.4-3.7,10.4-3.7s0-3.7,4.5,1.5c4.5,5.3,29.1,8.2,44.8,4.5c15.7-3.7,52.2-6,61.9-12.7
	c9.7-6.7,15.7-13.5,24.6-12c8.9,1.5,4.5,1.5,17.9,1.5c13.5,0,53,8.9,65.6,12.7s33.5,6,38-4.5c4.5-10.4-6.7-14.2-6.7-14.2
	s3.7-12.7,25.3-3.7c21.7,8.9,32.8,26.8,32.8,26.8s-4.2-32-33.5-41.7c-20.2-6.7-32.8,1.5-43.3,4.5c-10.5,3.1-53.7,6-59.7,0
	c-6-6-4.5-10.4-4.5-10.4l20.3-26.8c12.1,0.9,44,9.5,56.8,11.9c11.4,2,33.2,7.5,37.8,0s-2.2-18.6-4.5-18.6s11.1-8.9,25.3-1.5
	s28.4,24.6,28.4,24.6s-0.7-26-26-37.2c-16.1-7-37.2-3.7-44.6,0c-7.5,3.7-31.6,5.9-37.9,4.4c-6.1-1.5-18.1-4.4-18.1-4.4
	s26-39.5,51.5-58.2c25.3-18.6,36.6-27.7,44.8-46.2c8.2-18.6,6.7-34.2,8.2-45.5c1.2-8.9,10.4-29.3,15.2-45.1
	c29.4,2.8,81.2,11.4,125.7,24.1c47,13.5,127.5,44,174.6,62.6s139.5,53.7,139.5,53.7s3.7,2.2,39.5,25.3S1416.2,1076.6,1412.6,1069.2z
	"/>
</svg>
