<?xml version="1.0" encoding="utf-8"?>
<!-- Generator: Adobe Illustrator 18.0.0, SVG Export Plug-In . SVG Version: 6.00 Build 0)  -->
<!DOCTYPE svg PUBLIC "-//W3C//DTD SVG 1.1//EN" "http://www.w3.org/Graphics/SVG/1.1/DTD/svg11.dtd">
<svg version="1.1" id="Слой_2" xmlns="http://www.w3.org/2000/svg" xmlns:xlink="http://www.w3.org/1999/xlink" x="0px" y="0px"
	 viewBox="0 40 1590 1116" enable-background="new 0 40 1590 1116" xml:space="preserve">
<path fill="none" stroke="#000000" stroke-width="2" stroke-miterlimit="10" d="M1545.2,136.2c-28.6-9-84.3-10.7-84.3-10.7
	s-9-10.7-17.1-20.7c-8.1-9.9-15.2-18.8-56.4-36.7c-41.2-17.9-107.5-20.7-143.2-15.2c-35.9,5.4-98.6,23.3-127.2,31.4
	c-28.6,8.1-14.3,4.5-115.5,54.7S787.1,278.7,771.8,290.3c-15.2,11.7-50.2,48.4-50.2,48.4s-106,44-146,68.1
	c-4.4,2.6-6.2,3.6-17.1,11.7c-10.7,8.1-25,28.6-25,28.6s-19.7,16.2-39.5,29.5c-19.7,13.4-16.2,20.7-34.1,43.9
	c-17.9,23.3,6.2,28.6,6.2,28.6l-2.7,8.1c0,0-15.2,9-34.1,18c-18.8,9-91.4,45.6-121.9,52.7c-30.5,7.2-98.6,34.1-120,50.2
	s5.4,21.5,5.4,21.5s-3.6,4.5,9.8,8.1c13.4,3.6,54.7,7.2,65.5,8.1s28.6,4.5,28.6,4.5s-9.8,9-17.9,14.3c-8.1,5.3-17.9,16.2-11.7,17.1
	c6.2,0.9,32.2-3.6,32.2-3.6s-1.9,5.4-7.2,8.1c-5.3,2.7-153.2,129.2-174.6,147.2c-21.5,17.9-70.8,47.4-70.8,47.4l1.9,7.2l-27.8,37.6
	l7.2,3.6c0,0-19.7,20.7-17.1,21.5c2.7,0.9,15.2-6.2,12.6-3.6c-2.6,2.6-8.1,11.7-4.5,11.7s4.5,3.6,4.5,3.6s-12.6,15.2-18.8,25
	s3.6,9,3.6,9l10.7,4.5v9.8c0,0-12.6,20.7-3.6,19.7c9-0.9,37.6-11.7,61.9-31.4S210.9,981.2,273.6,940
	c62.7-41.2,165.8-138.1,170.3-138.9c4.5-0.9,71.7-16.2,127.2-34.1c55.5-17.9,112.9-19.7,146.9-14.3c5.2,0.8,12.1,1.6,20,2.3
	c-4.6,17.2-9.1,37.9-7.4,46.1c2.7,13.4,8.1,29.5,15.2,37.6c7.2,8.1,20.7,11.7,30.5,20.7c9.8,9,175.7,171.2,178.3,181
	c2.7,9.8,13.4,17.9,11.7,20.7c-1.9,2.7,1.9,10.7-36.7,11.7c-38.6,0.9-24.2-7.2-29.5-8.1c-5.4-0.9-10.7-2.7-17.1-2.7s-6.2,0-6.2,0
	s-30.1-16.3-53.8,0.9c-19.7,14.3-13.4,32.2-13.4,32.2s2.7-14.3,25-23.3s36.7,2.7,36.7,2.7s-14.3,21.6,0,26c14.3,4.4,26.9,0,26.9,0
	s61.9,0,73.5-7.2s24.2-8.1,24.2-8.1s10.7,18.8,26.9,25c16.2,6.2,27.8,11.7,41.2,13.4c13.4,1.9,18.8-1.9,26.9,0c8.1,1.9,9-3.6,9-3.6
	s8.1,11.7,0,17.9c-8.1,6.2-9,9.8-9,9.8s16.4-9.5,19.7-18.8c5.4-15.2,0-24.2,0-24.2s2.7-0.8,13.4-4.5c10.7-3.7,19.7-22.4,28.6-28.8
	c9-6.2,15.2-6.2,15.2-6.2s5.4,8.1,11.7,3.6s7.2-15.2,7.2-15.2s13.4-5.4,16.2,5.4c2.7,10.7,0,24.2,0,24.2s12.9-24.6,6.2-33.1
	c-11.7-15.2-25-10.7-25-10.7s-5.4-12.6-21.5-1.9c-16.2,10.7-35,39.5-44.8,40.3s-17.9,2.7-32.2,3.6c-14.3,0.9-27.8-4.5-27.8-4.5
	s9.8-17.1,17.9-22.4c8.1-5.3,14.3-9,17.1-16.2c2.7-7.2,2.7-17.1-6.2-9.8c-9,7.2-35.9,33.1-40.3,34.1c-4.5,0.9-12.6,2.7-17,2.7
	c-4.5,0-15.2-5.4-18.8-10.7c-3.6-5.3-3.6-7.2-17.9-17.9c-7.7-5.7-61.9-61.3-111.6-113.2c2.4-4.4,7-9.5,16.2-10.5
	c16.7-1.9,30.1,4.5,30.1,4.5s0.9,9.8,2.6,15.2c1.9,5.4,8.1,1.9,56.4,5.4c48.4,3.6,52.9-9.9,60-13.5c7.2-3.6,4.5,0,23.3,13.5
	s17.9,7.9,30.5,0c12.6-8,12.6-4.5,14.3,0c1.9,4.5,11.7,0,11.7,0s5.4-0.9,6.2,7.2c0.9,8.1-1.9,23.3-1.9,23.3s6.2-10.7,8.1-17.1
	c1.9-6.2,1.9-13.4,1.9-13.4l17.9-0.9c0,0,0,0,9.8-10.7c9.8-10.7,34.1-19.7,34.1-19.7s7.2,6.2,14.3,8.1c7.2,1.9,5.4-7.2,5.4-7.2
	s4.5,0,14.3,9c9.8,9,9.8,31.4,9.8,31.4s4.5-4.5,0-26.9c-4.5-22.4-25-26.9-26.9-31.4s-12.6-3.6-20.7-0.9c-8.1,2.6-35,19.7-40.3,25.3
	c-5.3,5.6-6.2-6.5-17.9-2c-11.7,4.5-25,0-25,0s8.1-10.7,20.7-19.7c12.6-9,11.7-14.3,14.3-21.5c2.6-7.2-9.8-1.9-17.9,1.9
	c-8.1,3.6-20.7,19.7-23.3,22.4c-2.7,2.6-18.8,6.2-18.8,6.2h-18.8c0,0-14.3-10.7-33.1-18.8c-14.3-6.1-124-80.6-176.5-116.3
	c6.4-3.7,12.5-7.3,18.3-10.7c8.9-0.8,17-1.7,23.9-2.8c48.4-8.1,156-43.1,240.2-82.4s104.8-60,159.5-113.8
	c54.7-53.8,75.3-185.5,78.8-204.3c3.6-18.8,4.5-43.9,17.9-70c13.4-26.1,51.9-90.5,51.9-90.5s46.6-10.7,81.5-17.9
	c35-7.2,52.5-15.2,52.5-15.2S1574,145.3,1545.2,136.2z M979.7,873.7c32.2,22.4,36.7,31.4,35,36.7c-1.9,5.4-9.8,0.9-47.4,1.9
	c-37.6,0.9-33.1-5.4-33.1-5.4s-24.2-16.2-47,0c-5.7,4.1-7.9,9.7-8.6,14.4c-42.5-44.3-81.2-85.1-84.1-88.8
	c-6.4-8.1-7.3-17.1,6.2-28.6c4.6-4,16.4-11.3,30.6-19.7C866.9,805,954.3,856.1,979.7,873.7z"/>
</svg>
