<?xml version="1.0" encoding="utf-8"?>
<!-- Generator: Adobe Illustrator 18.0.0, SVG Export Plug-In . SVG Version: 6.00 Build 0)  -->
<!DOCTYPE svg PUBLIC "-//W3C//DTD SVG 1.1//EN" "http://www.w3.org/Graphics/SVG/1.1/DTD/svg11.dtd">
<svg version="1.1" id="Слой_2" xmlns="http://www.w3.org/2000/svg" xmlns:xlink="http://www.w3.org/1999/xlink" x="0px" y="0px"
	 viewBox="0 42 1590 1117" enable-background="new 0 42 1590 1117" xml:space="preserve">
<path fill="#808080"    d="M1440.4,436.1c0.4-2.6,0.7-5.6,1.1-8.7
	C1504.8,408.5,1590,392,1590,392v-59.2c0,0-59.8,15.8-89.8,23.8c-21.2,5.7-43.1,10.7-55.9,13.6c0.5-37.9-1.1-78.4-4.8-96.3
	c-6.2-30.1-21.1-76.3-27.4-85.3c-6.4-9-14.3-14.8-14.3-14.8h7.7l-18-13.9h8.1l-25.2-28.4l8.5-4.1l-17.1-12.6l4.9-2.7
	c0,0-15.8-10.3-17.1-10.3c0.9,0,7.7,0,7.7,0s-15.2-9-16.6-9.4c-1.3-0.4,3.2-4.9,3.2-4.9l-13.5-3.6l3.2-4.9l-17.1-4.5
	c0,0-1.9-4.9-3.2-4.9c-1.3,0-24.2-10.3-30.6-11.3s4.1-6.2,4.1-6.2s-13.9,0.9-24.6,2.7c-10.7,1.9-3.6-5.8-3.6-5.8s-7.7,0-18.8,7.7
	c-11.1,7.7-15.2,7.7-15.2,7.7l4.5-7.7c0,0-13.9,1.9-20.3,8.5s-26.9,33.7-31.4,39.5c-4.5,5.8-13,14.8-14.8,18
	c-1.9,3.2-4.5,16.6-4.5,16.6s-20.7,2.6-50.7,20.7s-54.3,41.7-54.3,41.7s34.2-17.1,64.7-23.3c30.6-6.2,40-12.2,45.3-8.5
	c5.4,3.6,35.9,13.9,47.2,26.1c11.3,12.2,15.2,11.7,15.8,18.8c0.4,7.2,0,40,3.2,49.8c3.2,9.8,3.6,16.6,3.6,16.6l1.9-17.5
	c0,0,1.3,21.1,5.8,37.8c4.4,16.3,13.9,79.4,32.1,120.4c-22.7,8.3-59,20.5-88.2,30.1c-38.7,12.6-175.2,45.8-175.2,45.8
	s-2.7-0.9-9-5.8c-6.4-4.9-15.8-2.3-15.8-2.3l-3.2-4.5l-13,4.1l2.3,5.4c0,0-0.4,2.6-2.3,7.2c-1.9,4.5,0.9,8.5,0.9,8.5
	s-35.9,14.8-71,30.1c-35,15.2-165.2,71.4-188.2,81.8s-93.4,34.2-93.4,34.2s-4.9-1.9-9-0.4c-4.1,1.3,0.9,4.9-4.5,8.1
	c-5.4,3.2-73.3,34.2-144.7,65.6c-20.9,9.3-52.3,21.3-87.1,34.1c-2.1-2.5-4.1-3.4-4.1-3.4s4.9-9,13-24.2c8.1-15.2,4.5-50.3,2.3-62.9
	c-2.3-12.6-7.7-24.6-15.8-47.2c-8.1-22.5-19.3-37.8-20.3-46.8c-0.9-9,5.4-26.5,9-37.8s6.8-37.2,6.8-37.2s24.6-19.7,50.4-35.5
	c25.6-15.8,40.8-15.8,40.8-15.8s-36.8-2.6-55.7,1.9c-18.8,4.5-50.7,22.4-50.7,22.4s-2.3-3.6-9-8.1c-6.8-4.5-30.1-9.9-45.8-7.7
	c-15.8,2.3-30.6,8.1-53,23.8c-22.4,15.8-21.6,18-32.7,40c-11.3,22-13,33.3-12.6,41.7s-0.9,21.6-2.7,33.3
	c-1.9,11.7-11.3,17.1-18.8,40c-7.7,22.9-14.3,70.5-19.7,99.8c0,0-5.4,61.5-6.2,73.7c-0.3,4,0,12.3,0.5,22.4
	c-32.6,7.8-76.8,21.2-76.8,21.2s-2.7,1.3-4.9-2.7c-2.3-4.1-4.1-5.8-3.6-12.2c0.4-6.2-9.9-4.5-13-3.2c-3.2,1.3,1.9,9,1.9,9s0,0-9,3.6
	s-2.3,14.8-6.8,17.5c-4.5,2.6-34.2,20.3-34.2,20.3v47.6c0,0,58.8-21.6,93.4-36.8c11.5-5.2,31.4-10.1,55.5-15.6
	c0.1,5,0.3,9.3,0.1,12.5c-0.4,17.5,6.2,16.2,6.2,16.2s0.4,4.9,0.9,14.3c0.5,9.4,5.8,9,5.8,9s-1.3,5.8-2.3,12.2
	c-0.9,6.2,3.2,7.7,0,15.8c-3.2,8.1-21.1,60.7-26.1,76.8c-5,16.2-8.1,25.2-17.5,44.5s-32.7,57.1-31.4,60.7c1.3,3.6,8.1,4.5,22,6.5
	c13.9,2,35.9-17.8,35.9-17.8s5.8,9,16.2,14.3c10.3,5.4,39.1,3.6,43.1,0c4.1-3.6,7.2,0,1.3-40.8s3.6-80.8,7.2-109.6
	c3.6-28.8,14.8-49.8,14.8-49.8s-2.6,9.9-4.9,14.3c-2.3,4.5-5.4,17.5-0.4,26.1s8.5,6.8,22-4.1c13.5-10.7,18.4-33.3,26.5-46.2
	c8.1-13,29.2-44.9,41.3-66c7-12.3,14.2-29.8,18.8-42.3c4.8-2,9.5-3.8,14.3-5.7c0.7,2,2.5,6.4,6,8.1c4.5,2.3,4.5-5.4,4.5-5.4
	s-4.5,1.9-4.1-4.1c0-0.4,0.1-0.8,0.1-1.1c68.5-26,140.7-44.4,149.5-44.7c10.3-0.4,9.9-5.4,17.5-13.5c7.7-8.1,97.9-44.9,141.5-68.8
	s134.8-56.2,134.8-56.2s0,8.1,0,15.2c0,7.2,6.8,5.8,6.8,5.8l4.1,29.1l12.1-5.4c0,0,0.5-19.7,0-25.2c-0.4-5.4,3.2-7.2,5.8-9.9
	c2.7-2.7,3.6-10.7,3.2-17.5c-0.4-6.8,7.2-7.2,16.6-14.8s94.3-42.3,142.8-62.4s163.1-40.4,163.1-40.4s1.9,4.9,2.3,6.2
	c0.4,1.3-5.8,7.2-8.5,9.9c-2.7,2.7,1.3,9,6.2,7.2c4.9-1.9,11.7-4.5,24.2-12.2c12.6-7.7,10.7-12.6,13.9-17.5
	c3.2-4.9,10.3-5.4,77.6-31.9c11.3-4.4,20.9-7.6,29.4-9.9c8.3,18.2,14.4,30.6,18.6,35.5c6.8,8.1,6.8,8.1,6.8,8.1l3.6-6.2
	c0,0,19.7,28.8,22.4,37.2c2.7,8.5,5.8,40.8,8.1,69.6c2.3,28.8,5.4,97,0,120.8c-5.4,23.9-14.8,34.2-9.4,43.6
	c5.4,9.4,17.1,6.2,25.6,4.5c8.5-1.9,27.4-20.3,27.4-20.3s19.7,16.2,35.9,16.2s26.5-5.4,27.4-8.5c0.9-3.2-12.6-25.6-16.2-31.4
	c-3.6-5.8-4.1-18.4-5.8-33.3s-23.3-109.2-25.6-132.1c-2.3-22.9-5.8-22-1.3-29.1C1414.4,533.5,1435.1,473.7,1440.4,436.1z"/>
</svg>
