<?xml version="1.0" encoding="utf-8"?>
<!-- Generator: Adobe Illustrator 18.0.0, SVG Export Plug-In . SVG Version: 6.00 Build 0)  -->
<!DOCTYPE svg PUBLIC "-//W3C//DTD SVG 1.1//EN" "http://www.w3.org/Graphics/SVG/1.1/DTD/svg11.dtd">
<svg version="1.1" id="Слой_2" xmlns="http://www.w3.org/2000/svg" xmlns:xlink="http://www.w3.org/1999/xlink" x="0px" y="0px"
	 viewBox="0 102 1590 920" enable-background="new 0 102 1590 920" xml:space="preserve">
<path fill="none" stroke="#000000" stroke-width="2" stroke-miterlimit="10" d="M1506.7,595.2c-41.6-17.5-311.8-59.1-336.7-68.5
	c-24.9-9.4-52.5-29.5-52.5-29.5s4.8-8.7-14.8-37.6S931.5,355.3,899.1,335.8c-32.2-19.5-212.4-113.6-254.7-131.7
	s-83.3-26.2-83.3-26.2s-28.9-22.1-75.3-40.3s-131.7-30.9-166.6-28.2c-35,2.7-112.2,30.2-141.8,48.4s-44.4,51-52.5,60.4
	c-8.1,9.4-18.2,17.5-39.6,26.9C64,254.4,29,271.3,13.5,286c-15.5,14.6-7.4,18.3,2.7,17.6c10.1-0.7,22.8-4,46.4-7.4
	c23.6-3.3,42.4-11.4,54.5-10.1c12.1,1.3,39.6,8.7,60.4,26.2s37.6,36.3,56.4,77.2s20.1,55.1,24.2,82.7c4,27.6,24.9,68.5,56.4,107.5
	c31.5,39,80,59.1,138.5,88c58.4,28.9,132.4,61.9,194.2,71.3s91.4,9.4,91.4,9.4l21.5,29.5c0,0-22.7,36.3-40.4,64.4
	c-7.2-0.9-13.4-2.3-15.4-3.8c-5.4-4.8-8.1-8.7-8.1-10.7s-9.7-4-10.7-2.7c-1.9,2.4-0.7,8.1,0,12.1c0.7,4,10.7,14.2,10.7,14.2
	s-4,4-10.7,4.8c-6.8,0.8-29.5-0.7-38.3-6.8s-22.1-1.3-22.1-1.3s-18.8-6.1-30.2,6.1c-5.8,6.1-4.8,18.8-4.8,18.8s0,0,8.7-8.7
	c8.7-8.7,19.5-2.7,19.5-2.7s1.3,4.8,2.6,9.4l8.7,0.7c0,0-3.3,3.3-9.4,9.4c-6.1,6.1,0.7,16.8,0.7,16.8s5.4-6.1,12.7-12.7
	c7.3-6.6,15.5,0,15.5,0s-0.7,8.7,7.4,9.4c8.1,0.7,16.2-2,26.2-2.7c0.9,0,1.9-0.1,3-0.1c-10.5,12.9-23.2,26.6-35.2,37.8
	c-18.8,17.5-24.9,32.2-33.7,32.2c-8.7,0-29.5-6.8-29.5-6.8s-3.3-13.4-14.8-8.7c-5.8,2.4-4.8,17.5-2.7,12.1c2-5.4,9.4-5.4,9.4-5.4
	s1.3,8.7,4,12.1s14.2,5.4,14.2,5.4s-11.4,2-22.8,2S521,962.3,521,962.3s-8.7-16.8-24.9-7.4c-7,4.1-2,18.8-2,18.8s1.2-8.1,6.1-10.1
	c7-2.9,12.1,4.6,12.1,4.6l4,12.7c0,0-11.4,2-18.8,5.4c-7.4,3.4-9.4,25.3-9.4,25.3s6.9-12.3,12.7-15.9c14-8.5,19.5,0,19.5,0
	s-2.7,6.8,0,13.2c2.6,6.6,9.4-1.2,18.2-1.2c8.7,0,69.2,2.7,82.7,0c13.4-2.6,22.8-18.2,22.8-18.2s9.4-0.7,14.8,0.7
	s16.8,12.1,33.7,13.4c16.8,1.3,25.6-3.3,38.3-1.3c12.7,2,10.7,2,26.9,0c16.2-2,9.4-18.8,9.4-18.8s6.8-8.1,17.5-2.6
	c10.7,5.4,24.2,26.9,24.2,26.9s0-12.7-10.1-30.2c-10.1-17.5-33.7-18.8-43.7-15.5s-16.2,4.8-26.9,3.3c-10.7-1.3-30.2-0.7-35.6-4
	c-5.4-3.3-12.7-4-12.7-4s2-4.8,5.4-12.1c2.4-5.2,20-33.5,33.9-55.3c5.3-0.1,10.1-0.1,13.1,0.1c10.1,0.7,24.2-10.7,33-10.7
	c8.7,0,19.5,6.8,42.4,10.1c22.8,3.3,35.6-4.8,43.1-2c7.4,2.7,14.2,4,29.5,3.3c15.5-0.7,5.4-16.8,5.4-16.8s1.2-1.3,13.2,0.5
	c9,1.5,29.8,22.9,29.8,22.9s-6.1-18.2-19.5-34.8c-13.4-16.7-38.3-12.2-38.3-12.2s0,0-9.4,0.7c-9.4,0.7-23.6,10.1-35.6,11.4
	c-12.1,1.3-22.8-8.7-22.8-8.7s5.4-10.7,8.1-15.5c2.7-4.8,14.2-30.9,22.8-43.1s65.2-76.6,72.6-86c7.4-9.4-8.1-26.2-8.1-26.2
	s64.5-7.4,96.7-16.8c32.2-9.4,150.5-20.8,161.3-23.6c10.7-2.6,23.6-9.4,51.8-6.1c28.2,3.3,172,33.7,229.8,50.3
	c57.8,16.8,64.5,13.4,84.7,14.2c20.1,0.7,8.7-12.7,8.7-12.7s25.6,1.3,38.3-6.1c12.7-7.4-30.2-34.3-30.2-34.3s26.9,6.1,37.6,2
	c10.7-4-28.2-18.2-28.2-18.2s14.8,2,30.2-2C1594,626.1,1548.3,612.7,1506.7,595.2z M846.1,730.2c-10.1,13.4-44.4,63.2-61.9,79.2
	c-8.2,7.6-16.8,15.8-23.7,22.3c18.7-24,40-50.9,43.2-54.6c5.4-6.1,2-22.1,6.8-30.2c4.8-8.1,2-25.6,2-25.6s5.4-8.1,16.8-10.7
	c11.4-2.7,23.6-2,24.2,1.3C854.1,715.5,856.2,716.9,846.1,730.2z"/>
</svg>
