<?xml version="1.0" encoding="utf-8"?>
<!-- Generator: Adobe Illustrator 18.0.0, SVG Export Plug-In . SVG Version: 6.00 Build 0)  -->
<!DOCTYPE svg PUBLIC "-//W3C//DTD SVG 1.1//EN" "http://www.w3.org/Graphics/SVG/1.1/DTD/svg11.dtd">
<svg version="1.1" id="Слой_2" xmlns="http://www.w3.org/2000/svg" xmlns:xlink="http://www.w3.org/1999/xlink" x="0px" y="0px"
	 viewBox="22 0 1389 1200" enable-background="new 22 0 1389 1200" xml:space="preserve">
<path fill="none" stroke="#000000" stroke-width="2" stroke-miterlimit="10" d="M1385.9,90.4c-14-7.9-82-26.3-82-26.3s0,0-4.4-3.5
	c-4.4-3.5-30.5-6.9-39.2-9.6c-8.8-2.7-6.9-5.2-65.5-24.4c-58.4-19.2-115.2-20.9-147.5-16.7c-32.3,4.4-57.6,14.8-122.3,50.7
	C906.2,71,892.2,80.1,881.8,88C876,90.8,870,95,865.1,99c-5.5,4.4-11.3,10.3-15.8,15.7c-4.7,5.6-7.8,12.6-11.3,18.6
	c-0.6,1-1.3,2-1.6,3.1c3.8-0.3,9.2-5.1,12.3-7.2c3.2-2.4,6.5-4.8,9.7-7.1c-1.6,1.4-2.4,3.5-3.4,5.4c-1.3,2.7-3.4,4.4-4.8,6.8
	c2.5-1.6,5.5-3,7.9-4.8c1.8-1.4,3.4-3.4,5.5-4.4c-0.1,1.7-1.7,3.8-2.4,5.6c-0.8,2.3-1.6,4.5-2.5,6.6c3.8-1.3,8.2-4.8,11.2-7.6
	c2.5-2.4,5.4-4.9,7.9-7.6c0.1,0,0.3,0,0.6,0c-1.8,3.1-3,6.6-4.8,9.6c-1.8,3.1-4.1,5.6-6.4,8.5c4.7-2.1,8-7.6,12.7-9.9
	c-2.1,2.8-6.5,8.6-6.9,12.1c2,0,4.9-4.2,6.5-5.6c3.5-3.1,6.9-6.1,10.4-9.2c3-2.5,6.2-4.8,9.5-6.8c1.3-0.1,2-0.1,2-0.1
	s-6.9,7.9-14.8,21.9c-7.9,14-18.4,41.1-34.9,74.3c-16.5,33.2-69.9,88.2-100.4,110.8c-30.5,22.7-113.5,76-150.2,113.5
	S467.5,601.9,430,665.7s-97.7,155.2-133,208c-17.1,25.6-67.2,103.1-67.2,103.1s-132.7,88.2-172.9,122.3
	c-40.2,34-29.6,36.7-19.2,37.6c10.4,0.8,28.8-2.7,48.8-3.5s34.9,0.8,34.9,0.8s2.7,40.2,9.6,49.8c6.9,9.6,20,17.5,49.8,0
	c29.6-17.5,70.7-60.3,106.6-94.3c35.9-34,131.9-96,131.9-96s6.1,4.4,35.9-5.2c29.6-9.6,75.1-32.3,75.1-32.3s4.2,0.6,10.4,1.3
	c-3.1,3.5-8.3,10-3.1,10.9c3.1,0.6,6.5-2.3,10-2c-0.1,3.4-3.8,5.6-4.7,8.5c3.2-1.6,6.4-3.5,9.6-4.9c2.3-1,5.5-4,7.8-4
	c-0.1,3.4-3.2,6.5-3,9.9c3.4-1.6,6.1-7.1,8.3-10c0.4-0.4,1-1.1,1.7-1.8c3.1,10.7,7.2,22.3,11.7,25.4c8.8,6.1,13.1,3.5,33.2,12.3
	c20,8.8,35.9,22.7,37.6,25.3c1.7,2.7,10.9,0.8,14,6.9c3.1,6.1,2.7,6.9-8.3,5.6c-10.9-1.3-17.1-3.5-19.2-3.5c-2.1,0-3.5,4-3.5,4
	s-10.9-9.3-25.3,4.7c-14.4,14-17.1,35.9-17.1,35.9s11.3-13.6,21.5-23.2c10-9.6,16.7-2.7,16.7-2.7s-7.9,12.7,2.7,14.4
	c10.4,1.7,23.6,2.7,28.8-1.7c5.2-4.4,24.8-8.3,28.8-9.2c4-0.8,18.1,2.7,22.6,1.3c4.5-1.3,5.8-4.8,5.8-4.8s20.5,7.9,29.6,8.8
	s54.1-6.5,58.4-7.5c4.4-0.8,25.3-0.8,34.9,0.8c9.6,1.7,10.9-8.3,9.6-10.9c-1.3-2.7,3.1-4.8,7.9-2.7c4.8,2.1,13.6,11.3,13.6,11.3
	s-0.7-2.3-1.8-5.1c20.6,12.1,40.5,24.3,43.3,27.4c6.1,6.5-7.9,11.3-16.1,13.1c-8.3,1.7-31.1,1.7-36.3,0c-5.2-1.7-18.9-10.2-30.1,1.3
	c-17.5,17.9-14,42.4-13.6,43.6s12.6-26.5,18.8-29.2c10.9-4.8,10.9,1.3,14,3.5c3.1,2.1-4.4,15.2,5.6,18.8c10,3.5,26.7-0.4,30.5-4.4
	c4-4,29.2-1.3,40.7-6.5c11.4-5.2,16.7,0.4,22.7-0.4s10.4,10.4,28,7.9c17.5-2.7,49.8-4.8,61.1-4.4c11.3,0.4,16.1,5.2,21.5-3.1
	c5.2-8.3,7.5-16.1,7.5-16.1s5.1,1.1,9.6,3.1c6.6,3,8.3,16.1,8.3,16.1s6.9-9.6,0-19.6c-5.4-7.6-21.5-11.3-21.5-11.3s2.7-1.7,4.4-4.8
	c1.7-3.1-0.8-11.7-0.8-11.7s2.7-4,5.6-3.5c3.1,0.4,5.6,9.2,5.6,9.2s3.1-16.7-3.1-21.5s-14,7.5-14,7.5s-12.3-3.5-17.5,2.7
	c-5.2,6.1-8.8,13.1-15.2,13.6c-6.5,0.4-28.8,4.8-32.8,4c-4-0.8-5.6-4-5.6-4s4-18.8-2.1-20s-16.7,1.7-16.7,1.7
	c-5.6,6.5-6.5,10.9-6.5,10.9s1.3-10.9-10-14.8c-11.3-4-93-48-102.6-54.1c-9.6-6.1-12.3-9.2-16.1-8.3c-4,0.8-8.8,0-8.8-14
	s10.4-42.8,14.8-53.6c1.4-3.5,4-8.2,6.6-12.7c6.6-5.4,13.3-10.7,19.6-16.1c33.2-28,145.8-139.8,169.4-172
	c23.6-32.3,116.2-186.9,125.8-231.4s12.3-68,14-108.3c1.7-40.2,2.7-68,14-98.7c11.3-30.6,49.8-101.2,76-124
	c26.3-22.7,66.4-34.9,112.7-48.8C1426.4,102,1399.9,98.3,1385.9,90.4z M627.5,971.9c-0.1-0.3-0.1-0.6-0.3-0.8
	c4.1-2.3,9-3.2,13.3-4.4c0.6,3.8-6.1,7.3-8.9,9.6C629.5,974.6,627.9,973,627.5,971.9z M626.2,966.1c0.6,0,1.1,0,1.6,0
	c-0.4,0.3-1,0.6-1.4,0.8C626.4,966.7,626.4,966.4,626.2,966.1z M636.5,979.9c4-2.5,9.5-4.7,14-4.9c-3.8,1.8-7.8,4.1-11.6,6.5
	C638.1,980.9,637.4,980.4,636.5,979.9z M837.8,1031c-3.8-1-19.5-4.9-27.5-4.1c-9.2,0.8-14,1.7-14,1.7s-0.4-7.5-10-9.2
	c-9.6-1.7-25.3,4-36.3,7.5c-11,3.5-12.3,2.7-19.6,0.8c-7.3-1.8-13.6-5.2-17.5-9.2c-4-4-9.6-12.3-19.6-14.8c-10-2.5-25.7-6.1-32.8-10
	c-3.1-1.7-9.5-5.1-15.8-8.8c2.4-0.7,4.8-1.1,7.1-1.8c6.2-1.7,12.3-4.9,18.1-8.2c1.4-0.8,5.4-4,6.9-3.8c3,0.3-0.7,2.8-1.3,3.8
	c3.2-1.6,6.5-3.2,10-4.7c2.3-0.8,4.2-1.7,6.2-3.1c1.3-0.8,2.7-2.3,4.1-2.3c-1.8,2-2.7,3.7-4.9,5.2c2.7,0.3,6.4-1.1,9-1.8
	c3.5-0.8,6.4-2.4,9.6-4.1c1.7-1,5.4-3.4,8.8-5.1c1.7,0.1,3.4,0.3,5.1,0.3c-3.2,2-6.5,4.1-9.5,6.6c-3.7,3-8,5.9-11.2,9.3
	c4,0.3,7.2-3.1,10.7-3c-2.1,2.4-9.5,7.2-9,10.7c3-0.8,6.1-2.3,9-3.4c2.5-1,5.6-3.5,8.3-3.5c-1,2.3-3.7,3.8-4.7,5.9
	c3.8-0.6,8.8-4.1,12.1-6.2c2.5-1.6,7.3-5.2,10.4-4.7c-0.1,1.6-2.7,3.7-5.5,5.8c3.4-1.8,7.2-3.4,10.4-4.8c5.8-2.8,11.7-5.5,17.5-8.3
	c-0.7,5.1-0.4,10,2.1,13.8c6.1,9.2,29.6,33.2,35.3,36.7s14,2.7,19.6,5.6C820.8,1021.2,828,1025.3,837.8,1031z"/>
</svg>
